<?xml version="1.0" encoding="UTF-8"?>
<svg width="232px" height="32px" viewBox="0 0 232 32" version="1.1" xmlns="http://www.w3.org/2000/svg" xmlns:xlink="http://www.w3.org/1999/xlink">
    <title>overview/item/money icon</title>
    <defs>
        <filter id="filter-1">
            <feColorMatrix in="SourceGraphic" type="matrix" values="0 0 0 0 0.721569 0 0 0 0 0.168627 0 0 0 0 0.133333 0 0 0 1.000000 0"></feColorMatrix>
        </filter>
    </defs>
    <g id="Symbols" stroke="none" stroke-width="1" fill="none" fill-rule="evenodd">
        <g id="Card/Account/Overview/money-close" transform="translate(-32.000000, 0.000000)">
            <g id="Tint-Color" transform="translate(32.000000, 0.000000)" filter="url(#filter-1)">
                <g>
                    <g id="Group-8" opacity="0.3" fill="#FFFFFF">
                        <path d="M17.20472,20.84688 C17.66872,20.74368 18.05752,20.58288 18.33752,20.35248 C18.71592,20.04048 18.90712,19.60528 18.90712,19.06048 C18.90632,18.59328 18.20392,18.00368 17.20472,17.53968 L17.20472,20.84688 Z" id="Fill-1"></path>
                        <path d="M14.13128,13.07344 C14.13128,13.44384 14.66328,13.99184 15.44408,14.37184 L15.44408,11.82544 C14.75928,11.97424 14.13128,12.31424 14.13128,13.07344" id="Fill-3"></path>
                        <path d="M21.30704,19.05856 C21.30784,20.32016 20.79424,21.43776 19.86224,22.20496 C19.16704,22.77696 18.27424,23.13936 17.20464,23.29056 L17.20464,24.22896 C17.20464,24.89136 16.66704,25.42896 16.00464,25.42896 C15.34224,25.42896 14.80464,24.89136 14.80464,24.22896 L14.80464,23.30736 C12.51104,23.05856 11.29104,22.17136 11.14224,22.05536 C10.61904,21.64816 10.52464,20.89456 10.93104,20.37136 C11.33824,19.84736 12.09264,19.75216 12.61584,20.16016 C12.64144,20.17856 13.36784,20.68256 14.80464,20.88576 L14.80464,16.71056 C13.19664,16.06096 11.73104,14.77536 11.73104,13.07376 C11.73104,11.53696 12.73024,9.77056 15.44384,9.39456 L15.44384,7.77136 C15.44384,7.10816 15.98144,6.57136 16.64384,6.57136 C17.30624,6.57136 17.84384,7.10816 17.84384,7.77136 L17.84384,9.34816 C19.58544,9.43696 20.40704,9.69936 20.51104,9.73456 C21.13744,9.94976 21.47104,10.63216 21.25664,11.25936 C21.04224,11.88176 20.36944,12.21616 19.74464,12.00816 C19.71344,12.00016 19.10864,11.83616 17.84384,11.75856 L17.84384,15.19856 C19.34624,15.82016 21.30544,17.02176 21.30704,19.05856 M15.99984,0.00016 C7.16304,0.00016 -0.00016,7.16336 -0.00016,16.00016 C-0.00016,24.83696 7.16304,32.00016 15.99984,32.00016 C24.83664,32.00016 31.99984,24.83696 31.99984,16.00016 C31.99984,7.16336 24.83664,0.00016 15.99984,0.00016" id="Fill-5"></path>
                    </g>
                    <g id="Group-8-Copy" opacity="0.5" transform="translate(40.000000, 0.000000)" fill="#FFFFFF">
                        <path d="M17.20472,20.84688 C17.66872,20.74368 18.05752,20.58288 18.33752,20.35248 C18.71592,20.04048 18.90712,19.60528 18.90712,19.06048 C18.90632,18.59328 18.20392,18.00368 17.20472,17.53968 L17.20472,20.84688 Z" id="Fill-1"></path>
                        <path d="M14.13128,13.07344 C14.13128,13.44384 14.66328,13.99184 15.44408,14.37184 L15.44408,11.82544 C14.75928,11.97424 14.13128,12.31424 14.13128,13.07344" id="Fill-3"></path>
                        <path d="M21.30704,19.05856 C21.30784,20.32016 20.79424,21.43776 19.86224,22.20496 C19.16704,22.77696 18.27424,23.13936 17.20464,23.29056 L17.20464,24.22896 C17.20464,24.89136 16.66704,25.42896 16.00464,25.42896 C15.34224,25.42896 14.80464,24.89136 14.80464,24.22896 L14.80464,23.30736 C12.51104,23.05856 11.29104,22.17136 11.14224,22.05536 C10.61904,21.64816 10.52464,20.89456 10.93104,20.37136 C11.33824,19.84736 12.09264,19.75216 12.61584,20.16016 C12.64144,20.17856 13.36784,20.68256 14.80464,20.88576 L14.80464,16.71056 C13.19664,16.06096 11.73104,14.77536 11.73104,13.07376 C11.73104,11.53696 12.73024,9.77056 15.44384,9.39456 L15.44384,7.77136 C15.44384,7.10816 15.98144,6.57136 16.64384,6.57136 C17.30624,6.57136 17.84384,7.10816 17.84384,7.77136 L17.84384,9.34816 C19.58544,9.43696 20.40704,9.69936 20.51104,9.73456 C21.13744,9.94976 21.47104,10.63216 21.25664,11.25936 C21.04224,11.88176 20.36944,12.21616 19.74464,12.00816 C19.71344,12.00016 19.10864,11.83616 17.84384,11.75856 L17.84384,15.19856 C19.34624,15.82016 21.30544,17.02176 21.30704,19.05856 M15.99984,0.00016 C7.16304,0.00016 -0.00016,7.16336 -0.00016,16.00016 C-0.00016,24.83696 7.16304,32.00016 15.99984,32.00016 C24.83664,32.00016 31.99984,24.83696 31.99984,16.00016 C31.99984,7.16336 24.83664,0.00016 15.99984,0.00016" id="Fill-5"></path>
                    </g>
                    <g id="Group-8-Copy-2" opacity="0.3" transform="translate(80.000000, 0.000000)" fill="#FFFFFF">
                        <path d="M17.20472,20.84688 C17.66872,20.74368 18.05752,20.58288 18.33752,20.35248 C18.71592,20.04048 18.90712,19.60528 18.90712,19.06048 C18.90632,18.59328 18.20392,18.00368 17.20472,17.53968 L17.20472,20.84688 Z" id="Fill-1"></path>
                        <path d="M14.13128,13.07344 C14.13128,13.44384 14.66328,13.99184 15.44408,14.37184 L15.44408,11.82544 C14.75928,11.97424 14.13128,12.31424 14.13128,13.07344" id="Fill-3"></path>
                        <path d="M21.30704,19.05856 C21.30784,20.32016 20.79424,21.43776 19.86224,22.20496 C19.16704,22.77696 18.27424,23.13936 17.20464,23.29056 L17.20464,24.22896 C17.20464,24.89136 16.66704,25.42896 16.00464,25.42896 C15.34224,25.42896 14.80464,24.89136 14.80464,24.22896 L14.80464,23.30736 C12.51104,23.05856 11.29104,22.17136 11.14224,22.05536 C10.61904,21.64816 10.52464,20.89456 10.93104,20.37136 C11.33824,19.84736 12.09264,19.75216 12.61584,20.16016 C12.64144,20.17856 13.36784,20.68256 14.80464,20.88576 L14.80464,16.71056 C13.19664,16.06096 11.73104,14.77536 11.73104,13.07376 C11.73104,11.53696 12.73024,9.77056 15.44384,9.39456 L15.44384,7.77136 C15.44384,7.10816 15.98144,6.57136 16.64384,6.57136 C17.30624,6.57136 17.84384,7.10816 17.84384,7.77136 L17.84384,9.34816 C19.58544,9.43696 20.40704,9.69936 20.51104,9.73456 C21.13744,9.94976 21.47104,10.63216 21.25664,11.25936 C21.04224,11.88176 20.36944,12.21616 19.74464,12.00816 C19.71344,12.00016 19.10864,11.83616 17.84384,11.75856 L17.84384,15.19856 C19.34624,15.82016 21.30544,17.02176 21.30704,19.05856 M15.99984,0.00016 C7.16304,0.00016 -0.00016,7.16336 -0.00016,16.00016 C-0.00016,24.83696 7.16304,32.00016 15.99984,32.00016 C24.83664,32.00016 31.99984,24.83696 31.99984,16.00016 C31.99984,7.16336 24.83664,0.00016 15.99984,0.00016" id="Fill-5"></path>
                    </g>
                    <g id="Group-8-Copy-3" opacity="0.5" transform="translate(120.000000, 0.000000)" fill="#FFFFFF">
                        <path d="M17.20472,20.84688 C17.66872,20.74368 18.05752,20.58288 18.33752,20.35248 C18.71592,20.04048 18.90712,19.60528 18.90712,19.06048 C18.90632,18.59328 18.20392,18.00368 17.20472,17.53968 L17.20472,20.84688 Z" id="Fill-1"></path>
                        <path d="M14.13128,13.07344 C14.13128,13.44384 14.66328,13.99184 15.44408,14.37184 L15.44408,11.82544 C14.75928,11.97424 14.13128,12.31424 14.13128,13.07344" id="Fill-3"></path>
                        <path d="M21.30704,19.05856 C21.30784,20.32016 20.79424,21.43776 19.86224,22.20496 C19.16704,22.77696 18.27424,23.13936 17.20464,23.29056 L17.20464,24.22896 C17.20464,24.89136 16.66704,25.42896 16.00464,25.42896 C15.34224,25.42896 14.80464,24.89136 14.80464,24.22896 L14.80464,23.30736 C12.51104,23.05856 11.29104,22.17136 11.14224,22.05536 C10.61904,21.64816 10.52464,20.89456 10.93104,20.37136 C11.33824,19.84736 12.09264,19.75216 12.61584,20.16016 C12.64144,20.17856 13.36784,20.68256 14.80464,20.88576 L14.80464,16.71056 C13.19664,16.06096 11.73104,14.77536 11.73104,13.07376 C11.73104,11.53696 12.73024,9.77056 15.44384,9.39456 L15.44384,7.77136 C15.44384,7.10816 15.98144,6.57136 16.64384,6.57136 C17.30624,6.57136 17.84384,7.10816 17.84384,7.77136 L17.84384,9.34816 C19.58544,9.43696 20.40704,9.69936 20.51104,9.73456 C21.13744,9.94976 21.47104,10.63216 21.25664,11.25936 C21.04224,11.88176 20.36944,12.21616 19.74464,12.00816 C19.71344,12.00016 19.10864,11.83616 17.84384,11.75856 L17.84384,15.19856 C19.34624,15.82016 21.30544,17.02176 21.30704,19.05856 M15.99984,0.00016 C7.16304,0.00016 -0.00016,7.16336 -0.00016,16.00016 C-0.00016,24.83696 7.16304,32.00016 15.99984,32.00016 C24.83664,32.00016 31.99984,24.83696 31.99984,16.00016 C31.99984,7.16336 24.83664,0.00016 15.99984,0.00016" id="Fill-5"></path>
                    </g>
                    <g id="Group-8-Copy-4" opacity="0.3" transform="translate(160.000000, 0.000000)" fill="#FFFFFF">
                        <path d="M17.20472,20.84688 C17.66872,20.74368 18.05752,20.58288 18.33752,20.35248 C18.71592,20.04048 18.90712,19.60528 18.90712,19.06048 C18.90632,18.59328 18.20392,18.00368 17.20472,17.53968 L17.20472,20.84688 Z" id="Fill-1"></path>
                        <path d="M14.13128,13.07344 C14.13128,13.44384 14.66328,13.99184 15.44408,14.37184 L15.44408,11.82544 C14.75928,11.97424 14.13128,12.31424 14.13128,13.07344" id="Fill-3"></path>
                        <path d="M21.30704,19.05856 C21.30784,20.32016 20.79424,21.43776 19.86224,22.20496 C19.16704,22.77696 18.27424,23.13936 17.20464,23.29056 L17.20464,24.22896 C17.20464,24.89136 16.66704,25.42896 16.00464,25.42896 C15.34224,25.42896 14.80464,24.89136 14.80464,24.22896 L14.80464,23.30736 C12.51104,23.05856 11.29104,22.17136 11.14224,22.05536 C10.61904,21.64816 10.52464,20.89456 10.93104,20.37136 C11.33824,19.84736 12.09264,19.75216 12.61584,20.16016 C12.64144,20.17856 13.36784,20.68256 14.80464,20.88576 L14.80464,16.71056 C13.19664,16.06096 11.73104,14.77536 11.73104,13.07376 C11.73104,11.53696 12.73024,9.77056 15.44384,9.39456 L15.44384,7.77136 C15.44384,7.10816 15.98144,6.57136 16.64384,6.57136 C17.30624,6.57136 17.84384,7.10816 17.84384,7.77136 L17.84384,9.34816 C19.58544,9.43696 20.40704,9.69936 20.51104,9.73456 C21.13744,9.94976 21.47104,10.63216 21.25664,11.25936 C21.04224,11.88176 20.36944,12.21616 19.74464,12.00816 C19.71344,12.00016 19.10864,11.83616 17.84384,11.75856 L17.84384,15.19856 C19.34624,15.82016 21.30544,17.02176 21.30704,19.05856 M15.99984,0.00016 C7.16304,0.00016 -0.00016,7.16336 -0.00016,16.00016 C-0.00016,24.83696 7.16304,32.00016 15.99984,32.00016 C24.83664,32.00016 31.99984,24.83696 31.99984,16.00016 C31.99984,7.16336 24.83664,0.00016 15.99984,0.00016" id="Fill-5"></path>
                    </g>
                    <g id="Group-8-Copy-5" opacity="0.5" transform="translate(200.000000, 0.000000)" fill="#FFFFFF">
                        <path d="M17.20472,20.84688 C17.66872,20.74368 18.05752,20.58288 18.33752,20.35248 C18.71592,20.04048 18.90712,19.60528 18.90712,19.06048 C18.90632,18.59328 18.20392,18.00368 17.20472,17.53968 L17.20472,20.84688 Z" id="Fill-1"></path>
                        <path d="M14.13128,13.07344 C14.13128,13.44384 14.66328,13.99184 15.44408,14.37184 L15.44408,11.82544 C14.75928,11.97424 14.13128,12.31424 14.13128,13.07344" id="Fill-3"></path>
                        <path d="M21.30704,19.05856 C21.30784,20.32016 20.79424,21.43776 19.86224,22.20496 C19.16704,22.77696 18.27424,23.13936 17.20464,23.29056 L17.20464,24.22896 C17.20464,24.89136 16.66704,25.42896 16.00464,25.42896 C15.34224,25.42896 14.80464,24.89136 14.80464,24.22896 L14.80464,23.30736 C12.51104,23.05856 11.29104,22.17136 11.14224,22.05536 C10.61904,21.64816 10.52464,20.89456 10.93104,20.37136 C11.33824,19.84736 12.09264,19.75216 12.61584,20.16016 C12.64144,20.17856 13.36784,20.68256 14.80464,20.88576 L14.80464,16.71056 C13.19664,16.06096 11.73104,14.77536 11.73104,13.07376 C11.73104,11.53696 12.73024,9.77056 15.44384,9.39456 L15.44384,7.77136 C15.44384,7.10816 15.98144,6.57136 16.64384,6.57136 C17.30624,6.57136 17.84384,7.10816 17.84384,7.77136 L17.84384,9.34816 C19.58544,9.43696 20.40704,9.69936 20.51104,9.73456 C21.13744,9.94976 21.47104,10.63216 21.25664,11.25936 C21.04224,11.88176 20.36944,12.21616 19.74464,12.00816 C19.71344,12.00016 19.10864,11.83616 17.84384,11.75856 L17.84384,15.19856 C19.34624,15.82016 21.30544,17.02176 21.30704,19.05856 M15.99984,0.00016 C7.16304,0.00016 -0.00016,7.16336 -0.00016,16.00016 C-0.00016,24.83696 7.16304,32.00016 15.99984,32.00016 C24.83664,32.00016 31.99984,24.83696 31.99984,16.00016 C31.99984,7.16336 24.83664,0.00016 15.99984,0.00016" id="Fill-5"></path>
                    </g>
                </g>
            </g>
        </g>
    </g>
</svg>