<?xml version="1.0" encoding="UTF-8"?>
<svg width="343px" height="47px" viewBox="0 0 343 47" version="1.1" xmlns="http://www.w3.org/2000/svg" xmlns:xlink="http://www.w3.org/1999/xlink">
    <title>scsb_logo_dark拷貝</title>
    <g id="Page-1" stroke="none" stroke-width="1" fill="none" fill-rule="evenodd">
        <g id="scsb_logo_dark拷貝" fill="#FFFFFF" fill-rule="nonzero">
            <path d="M73.7683214,10.01205 C75.0526882,10.08255 75.976531,9.29505 76.8808454,9.34455 C78.4896838,9.42705 78.9238148,11.32605 79.9948716,11.96355 C79.5517275,13.21605 78.998924,14.37855 78.007483,15.13005 C76.5879197,15.36405 74.8438847,15.15555 73.2380507,15.31455 C72.593614,16.24755 72.4418934,17.64555 72.3742952,19.21605 C72.3622777,19.64505 72.2390987,20.22255 72.3097013,20.49405 C72.4749415,21.09105 73.8509415,21.40305 74.8889502,21.34905 C75.8353258,21.29355 77.0130376,21.07305 78.1381729,20.98005 C78.6819633,20.93955 79.2633083,20.85555 79.7965834,20.79705 C80.3704175,20.73705 81.0418934,20.57655 81.3873956,20.61705 C82.55309,20.74755 83.0803563,22.40355 83.6406707,23.23455 C83.8569852,23.55105 84.2295266,23.82855 84.3016314,24.15255 C84.61709,25.50855 83.4318672,26.53905 82.6462253,27.13305 C82.2826969,27.41355 81.7839721,27.89355 81.3197974,27.92505 C80.8781555,27.95805 80.1796402,27.54255 79.6658934,27.44055 C78.3740157,27.17205 77.0310638,27.31455 75.6926183,27.13305 C75.1007581,27.05505 74.5810026,26.80755 74.0312035,26.70855 C70.669317,26.11305 67.3179459,27.21105 64.5599371,27.62205 C63.6916751,27.75255 62.8038847,27.83205 61.9100856,28.04805 C61.0853869,28.24755 60.0428716,28.29105 59.3248279,28.65705 C58.8291074,28.91205 58.5406882,30.04005 57.8662079,30.11655 C57.0385048,30.21855 56.6839895,29.47005 56.2753956,29.02155 C56.1822603,27.71355 56.4075878,26.51055 56.2753956,25.30605 C56.2108017,24.67905 55.8668017,23.94255 56.0801118,23.35605 C56.4105921,22.44705 58.776531,21.93855 59.9196926,21.77205 C61.6952734,21.52005 63.4573345,21.59055 65.1548017,21.71355 C66.0711336,18.06255 66.38509,12.66255 64.8934218,9.34455 C64.681614,8.87205 64.3616489,8.34855 64.0281642,7.81905 C63.7217188,7.32705 63.2605485,6.67605 63.3026096,6.17505 C63.3657013,5.30505 64.6620856,4.94055 65.4236926,4.52805 C66.1883039,4.11405 67.2894044,3.48405 68.0735441,3.43455 C69.2001817,3.35955 69.2317275,4.25955 69.7935441,4.71255 C71.234138,5.43105 72.9301031,6.27255 73.2380507,8.00355 C73.3582253,8.68005 73.1043563,9.60555 73.7683214,10.01205" id="Fill-9"></path>
            <path d="M100.071252,12.2679 C96.7364052,12.0234 95.784021,9.5889 93.97389,7.9419 C94.5942917,6.6219 95.6307983,5.6844 96.8235319,4.8969 C99.1714445,4.6689 99.8399162,5.6799 100.666117,7.1499 C101.574938,8.7579 101.861855,11.2554 100.071252,12.2679" id="Fill-23"></path>
            <path d="M98.215455,17.87085 C96.6952454,18.13635 95.8059528,18.77085 94.3037694,18.36435 C93.9657782,18.26835 93.2747738,17.82135 92.7159616,17.44635 C91.4871755,16.62735 91.2573415,15.78135 91.7230183,14.03085 C91.8732367,13.46235 92.1346166,12.65985 92.785062,12.57435 C94.1565555,12.38385 94.7694463,13.44435 96.1604681,13.73535 C96.7418131,13.85085 97.8369048,13.75935 98.215455,13.90935 C98.5774812,14.06085 99.3736384,15.33885 99.4066865,15.79935 C99.4787913,16.79085 98.4573066,17.02935 98.215455,17.87085" id="Fill-27"></path>
            <path d="M100.002302,18.90645 C100.111962,21.95595 100.380852,25.95945 99.0769572,28.41495 C98.731455,29.05695 98.0314376,30.25545 97.2217607,30.2436275 C96.4826865,30.22995 95.913359,29.32245 95.6309485,29.08395 C95.1457432,28.68345 94.4922934,28.39545 94.1032279,27.92595 C93.3566428,27.00495 93.0682236,24.93645 93.7111581,23.65995 C94.1317694,22.82145 95.3275074,21.86745 96.2919092,21.04245 C97.3689747,20.12445 98.477586,19.41495 99.4074376,18.96945 C99.5366253,18.90645 99.7424245,18.79245 100.002302,18.90645" id="Fill-29"></path>
            <path d="M107.095011,24.39015 C107.452531,24.37065 107.819064,24.19215 108.154051,24.33165 C108.492042,23.70615 108.516077,22.76865 107.688374,22.62765 C107.557684,23.27565 107.001876,23.54115 107.095011,24.39015 M113.318557,22.69065 C112.684636,21.47415 111.757789,23.05665 111.529457,23.84115 C111.748776,24.19215 112.277544,24.25215 112.72219,24.39015 C113.285509,24.15765 113.090225,23.22615 113.318557,22.69065 M108.154051,17.02065 C108.187099,17.40915 108.223151,17.81115 108.550627,17.93415 C109.031326,18.04515 109.433911,17.31315 109.21309,16.77765 C108.708356,16.71615 108.502557,16.93815 108.154051,17.02065 M112.523902,16.77765 C112.612531,17.10315 112.729701,17.40315 112.923483,17.63115 C113.889387,17.96265 114.216863,16.95015 114.113212,16.29015 C113.486802,16.14015 113.109754,16.68615 112.523902,16.77765 M117.625317,10.38165 C116.686452,10.39665 116.422068,11.39865 115.639431,11.47815 C115.064094,11.53515 114.476741,10.85115 113.85033,11.35515 C113.183361,10.80015 111.883972,10.69515 110.8024,10.80465 C109.444426,10.94415 108.304269,11.83965 107.755972,12.57465 C110.659693,12.31815 113.984024,12.45315 116.501684,11.84115 C116.716496,12.17115 116.880234,12.70065 117.227238,12.99615 C117.42102,13.16415 117.698924,13.21665 117.891203,13.36665 C119.026854,14.23215 119.558627,15.79515 118.682854,17.08215 C119.435448,17.74965 120.925614,17.08215 122.065771,17.26215 C122.888968,17.39115 123.889422,18.08265 123.850365,18.72915 C123.836845,19.00665 123.302068,19.43415 123.123308,19.69815 C122.471361,20.67915 122.086802,21.82065 120.939134,22.32465 C120.383326,22.08465 119.457981,21.91515 118.682854,22.07865 C118.564182,22.93815 118.084985,23.32815 118.15709,24.02565 C118.272758,25.17315 119.820007,25.55265 119.675797,26.70765 C119.441457,28.63515 115.717544,27.02565 115.836217,29.39115 C114.987483,29.87715 114.745631,31.00815 113.581439,31.03365 C112.273038,31.07265 111.891483,29.71665 111.003693,29.08365 C109.572112,29.18715 108.283238,28.87965 107.095011,29.26515 C106.617317,29.41965 106.097562,29.92065 105.636391,29.94015 C105.173719,29.95515 104.401597,29.54715 104.111675,29.32815 C103.609946,28.95615 102.785247,27.64515 102.653055,26.95215 C102.41571,25.72065 103.80523,24.15165 103.051134,23.11065 C102.686103,22.61265 101.350662,22.64565 101.128339,22.01565 C101.415256,21.00015 100.49592,20.04015 101.062243,19.15365 C102.089736,18.73515 103.824758,18.96915 104.439151,18.18165 C104.715553,16.98915 105.565789,15.33015 104.774138,14.09715 C105.142173,13.45965 105.643902,12.94815 106.497142,12.75765 C106.014941,12.60465 105.526732,12.46965 105.305911,12.08265 C105.103116,9.88815 106.793072,8.79615 105.968374,6.78615 C105.791116,6.35415 105.451623,5.91765 105.106121,5.56815 C104.656968,5.10915 104.251378,4.74165 104.243867,4.34715 C104.219832,3.57615 105.80764,2.49765 106.692426,2.39415 C108.254697,2.22615 109.503011,3.18165 110.207535,3.91965 C110.88502,4.63065 111.20799,5.55315 112.857387,5.38515 C113.928444,5.27115 115.07461,4.53165 116.300391,4.89615 C116.955343,5.08965 118.475553,6.80415 118.552164,7.45515 C118.696374,8.66115 117.48261,9.14715 117.625317,10.38165" id="Fill-25"></path>
            <path d="M143.861852,22.5627 C143.616996,22.8087 143.391668,23.0637 143.199389,23.3547 C143.635022,24.0447 143.935459,24.7812 145.251371,24.5172 C145.523266,24.1932 145.741083,23.8287 145.984437,23.4777 C145.688507,23.2212 145.741083,22.6467 145.317467,22.5012 C144.893852,22.5897 144.324524,22.6917 143.861852,22.5627 M143.861852,16.5942 C143.266987,17.2542 143.638026,18.5547 143.926445,19.2762 C144.103703,18.5937 144.953939,16.9572 143.861852,16.5942 M143.731162,10.5627 C143.376646,11.1597 142.962044,11.9967 143.199389,12.9387 C143.601974,13.1352 144.0331,13.3062 144.658009,13.3032 C145.509747,12.7887 145.406096,11.6832 145.186777,10.5627 C144.716594,10.5747 144.151773,10.3932 143.731162,10.5627 M150.352786,10.2567 C150.130463,10.9197 150.566096,11.7372 150.352786,12.3897 C151.456891,12.6222 152.427301,12.4482 153.202428,12.7572 C154.805258,13.3962 155.649485,15.0177 155.652489,16.9002 C155.655493,18.2877 155.278445,19.7982 155.389607,21.3477 C155.424157,21.8022 155.565362,22.2372 155.587895,22.6902 C155.67352,24.3807 154.895389,26.3442 155.587895,27.8037 C155.25441,28.7187 154.707616,29.4297 154.261467,30.2427 C152.748769,30.2202 152.313135,31.8192 150.749362,31.5837 C150.309223,31.5162 149.697834,30.9582 149.293747,30.6672 C148.429991,30.0522 147.183179,29.2947 147.638341,27.8652 C148.18814,27.4392 148.97979,27.2322 149.890114,27.1332 C150.958166,25.8042 150.33476,23.1477 150.152996,20.8632 C150.019301,19.1337 150.089904,17.3757 149.361345,16.2897 C149.015843,16.3212 148.536646,16.2237 148.299301,16.3497 C148.194148,17.5512 148.234707,18.8907 147.838131,19.8252 C148.255738,20.3727 149.166061,20.6367 149.493537,21.3477 C149.754917,21.9072 149.528087,22.4262 149.428943,23.1762 C148.303808,23.8872 148.743948,25.6287 147.905729,26.5242 C146.58531,27.9312 143.535878,26.3052 142.071249,27.6222 C141.435825,27.3537 141.154917,26.7567 140.548035,26.4642 C140.926585,24.2082 138.210638,21.7962 140.615633,20.4312 C139.989223,19.6017 139.628699,18.5367 138.823528,17.8707 C138.898638,20.6577 139.146498,23.7837 139.421397,26.7687 C139.493502,27.5322 139.751878,28.3962 139.685782,28.9617 C139.613677,29.6292 138.566655,31.0317 137.898183,31.0332 C137.750969,31.0332 136.842148,30.5532 136.706952,30.4272 C136.559738,30.2877 136.612314,30.0387 136.439563,29.8137 C136.223249,29.5137 135.80414,29.2812 135.647913,29.0217 C134.757118,27.5532 135.431598,25.7907 135.580314,23.9067 C135.647913,23.0637 135.560786,22.0677 135.512716,21.1017 C135.469153,20.1477 135.665939,19.1322 135.512716,18.2967 C135.317432,17.2152 134.178777,16.2402 134.587371,14.7657 C135.484175,14.3127 136.91876,14.3517 137.566201,13.6677 C137.405467,13.0887 137.417485,12.3462 137.237223,11.7822 C136.163162,11.7927 135.330952,12.0537 134.653467,11.7192 C134.250882,11.5197 134.145729,11.0322 133.854306,10.6827 C133.366096,10.0902 132.627022,9.7212 132.135808,9.2817 C131.682148,8.2992 130.21752,6.8397 132.002114,6.2352 C134.087144,5.5317 139.089415,7.0542 140.352751,5.4447 C140.26262,4.3722 139.215598,4.0857 139.221607,3.0687 C139.232122,2.2002 140.095878,1.4577 141.278096,1.5402 C141.877467,1.5867 142.566969,1.8777 143.26248,1.9692 C144.55586,2.1432 145.876279,2.2257 146.577799,2.7027 C147.393485,3.1512 147.172664,5.1222 148.099511,5.4447 C148.461537,5.5677 149.571651,5.3022 150.352786,5.1987 C152.936541,4.8642 156.152716,4.5447 157.575284,6.1752 C157.872716,6.5112 158.306847,7.4037 158.23324,7.9422 C158.176157,8.3967 157.404035,9.0267 156.846725,9.5277 C156.46517,9.8682 155.831249,10.6332 155.05462,10.6827 C154.495808,10.7202 154.141293,10.3242 153.599004,10.1952 C153.218952,10.1007 152.789328,10.1637 152.406271,10.1367 C151.695738,10.0782 150.863528,9.7392 150.352786,10.2567" id="Fill-1"></path>
            <path d="M177.782805,13.55175 C177.862421,14.50575 179.689076,14.83275 179.765687,13.66875 C179.294002,13.37025 178.367155,13.27575 177.782805,13.55175 M183.545181,9.22125 C184.22567,9.66675 184.991783,9.06525 185.334281,8.67375 C186.214561,7.66725 186.693757,5.87175 187.78284,5.13375 C188.606037,5.49375 189.614002,6.14775 189.642543,6.96525 C189.66808,7.88475 188.434788,8.14275 188.183923,8.97825 C189.384168,9.59325 190.357583,8.65875 191.494735,8.91675 C192.429093,9.12825 193.387486,11.03325 193.21774,12.26775 C193.06001,13.40775 191.856762,14.82225 190.701583,14.82825 C190.129251,14.83275 189.226438,14.22375 188.648098,13.91025 C187.949583,13.54125 187.202997,13.02675 186.656203,12.93825 C186.390316,12.89175 184.366875,12.95475 184.138543,13.24275 C183.369425,14.23275 185.406386,14.57025 185.86305,15.19275 C186.046316,15.44025 186.157478,16.04775 186.128936,16.53675 C185.463469,16.86225 184.526107,17.12925 183.811067,17.02125 C183.35891,16.95075 183.068989,16.56225 182.619836,16.53675 C181.928831,16.48575 181.072587,17.01675 180.235871,17.02125 C179.504307,17.02425 178.892919,16.73325 178.63905,17.50425 C179.226403,18.29475 181.218299,17.78025 182.086561,18.29775 C182.975853,18.02325 183.866648,18.50025 183.741967,19.39575 C183.488098,21.29625 179.275976,18.75225 179.6365,21.10125 C181.413583,20.96925 184.058928,20.92725 184.736412,22.13775 C185.053373,22.70475 184.733408,24.02325 185.200587,24.33225 C185.482997,24.51675 185.918631,24.33675 186.261128,24.39075 C187.751294,24.64875 188.858403,26.38275 188.844884,28.04925 C188.338648,28.49625 187.910526,29.01675 186.99119,29.08425 C186.561565,29.31225 186.478945,29.89125 185.99374,29.93925 C184.616238,30.07275 184.466019,27.37875 182.816622,27.55725 C182.532709,27.03975 181.754578,26.91075 181.688482,26.34375 C181.632901,25.83075 182.341932,25.48425 182.152657,24.88125 C180.159259,24.69075 181.584831,27.49725 181.29491,28.65675 C181.201775,29.01375 180.600901,29.26575 180.432657,29.69475 C180.183294,30.30075 180.316989,30.72975 180.235871,31.40025 C178.57746,31.76475 177.805338,30.87825 176.855958,30.24225 C176.349722,29.90325 175.726316,29.73375 175.464936,29.51175 C174.698823,28.86075 174.719853,27.59025 174.53208,26.58825 C175.074369,26.31225 176.241565,26.61375 176.78836,26.34375 C176.893513,25.85025 176.96712,24.88275 176.587067,24.63975 C173.172604,23.87175 172.706928,26.34375 172.616797,28.83975 C172.085024,29.25975 171.632866,29.98875 170.824692,29.99925 C169.776168,30.00975 169.333024,28.45275 168.772709,27.68325 C168.572919,27.41325 168.286002,27.09825 168.242438,26.82675 C167.967539,25.15125 169.911364,25.10625 170.824692,24.33225 C170.291417,21.19725 174.58015,22.50225 176.391783,21.53325 C176.543504,21.26625 176.825914,21.11475 176.855958,20.73675 C176.342211,20.37225 175.606141,20.26575 174.868569,20.43075 C174.527574,20.50275 174.218124,20.87025 174.00181,20.86425 C173.477548,20.81625 173.211661,20.22225 173.011871,19.88775 C174.058893,19.36425 174.886596,18.64275 175.328238,17.56875 C174.716849,17.06775 173.282264,17.26275 172.616797,17.56875 C172.146613,17.26875 171.58029,17.04975 171.490159,16.53675 C171.275347,15.29925 173.154578,14.89725 173.674334,14.15925 C173.123032,13.33275 171.374491,13.80675 170.159224,13.97475 C168.919923,14.14275 167.619032,14.48775 166.783818,14.82825 C164.228604,14.42625 164.462945,10.66125 166.387242,9.58575 C167.226962,9.11775 168.186858,9.24075 169.236884,9.09975 C169.785181,7.76925 167.901443,7.43475 168.110246,5.93175 C168.216901,5.14575 169.163277,3.96225 169.897845,3.79875 C170.730054,3.61575 172.319364,4.21275 172.81208,4.52775 C174.085932,5.34525 173.461024,7.96575 173.540639,9.52725 C174.356325,9.86625 175.045827,9.26475 175.464936,8.85375 C176.043277,6.95925 173.636779,6.47625 173.872622,4.65075 C173.932709,4.19325 174.323277,3.95475 174.605687,3.55575 C174.933163,3.07575 174.987242,2.40525 175.661722,2.33625 C176.388779,2.25975 177.769286,3.40275 178.179382,3.79875 C178.487329,4.08975 179.074683,4.75125 179.104727,5.19975 C179.16181,6.03525 177.731731,8.11875 178.974037,9.03825 C179.641006,8.70525 179.950456,8.00325 180.235871,7.33275 C180.485233,6.74025 180.904342,5.95725 181.024517,5.26275 C181.249845,4.00275 180.285443,2.30925 181.822176,2.09325 C182.938299,1.93425 183.5587,2.81625 184.207644,3.49275 C184.679329,3.98925 185.323766,4.35975 185.400377,4.77375 C185.669268,6.18375 183.982316,6.60225 183.741967,7.81875 C183.642823,8.32575 183.762997,8.67375 183.545181,9.22125" id="Fill-5"></path>
            <path d="M212.761296,16.71585 C212.016213,15.83085 213.480842,15.45285 214.485803,14.58585 C214.843322,14.27085 215.008562,13.60185 215.809226,13.79085 C215.996999,13.83735 216.33499,14.24235 216.407095,14.33985 C216.781139,14.83485 216.880283,15.66285 216.07361,16.04385 C215.753645,16.19535 215.363078,16.10385 215.011567,16.16535 C214.252964,16.30785 213.558955,16.86135 212.761296,16.71585" id="Fill-11"></path>
            <path d="M217.135804,18.05985 C216.877429,18.61635 216.335141,18.90285 215.87397,19.27635 C215.477394,19.27635 215.255071,19.11435 215.011717,18.96885 C214.223071,19.59135 212.367874,20.22135 212.429464,18.47985 C213.722844,18.04485 215.525464,17.75535 216.604031,17.32635 C216.979577,17.39085 217.003612,17.77185 217.135804,18.05985" id="Fill-13"></path>
            <path d="M222.4992,26.5245 C223.816615,26.82 225.356353,26.4375 225.482536,25.2465 C224.717925,24.1515 221.710554,24.5955 222.4992,26.5245 M215.147514,23.355 C215.186571,22.8405 214.674327,22.206 214.154571,22.1969819 C213.415497,22.1925 212.372982,23.8635 212.892737,24.4485 C214.074955,24.537 215.085925,24.144 215.147514,23.355 M222.637401,22.809 C223.639357,22.6995 224.307829,23.2125 225.21665,22.9905 C225.559148,22.656 225.284248,22.1565 225.21665,21.7125 C224.055462,21.381 221.716562,21.2295 222.637401,22.809 M218.590519,14.2785 C218.994606,14.2305 219.427235,14.6535 219.916947,14.586 C221.402606,14.3745 219.969523,12.7515 219.254484,12.7574669 C218.719707,12.762 217.866466,13.1775 217.004213,13.3035 C216.170501,13.4235 215.255672,13.5285 214.351357,13.4835 C214.068947,13.4715 213.655846,13.3755 213.42451,13.4235 C213.140597,13.4895 212.946816,13.8015 212.762047,13.9095 C212.502169,14.0655 212.16568,14.1225 211.833698,14.2155 C210.484737,14.604 209.00058,14.4945 208.785768,13.3035 C208.474816,13.725 207.54196,14.028 207.65913,14.829 C207.777803,15.621 209.224405,15.447 209.581925,16.227 C209.829785,16.7775 209.616475,17.4705 209.648021,18.1185 C209.700597,19.161 209.766693,20.226 209.847811,21.348 C210.379584,21.3165 210.7341,20.6985 211.369523,20.6745 C211.596353,20.6685 211.866746,20.8425 212.098082,20.8635 C213.8992,20.979 216.021785,19.953 217.866466,20.6175 C218.485366,20.148 219.741191,19.3695 219.65106,18.5445 C219.583462,17.8845 218.590519,17.8965 218.195445,17.385 C217.977628,16.5195 217.411305,14.4225 218.590519,14.2785 M223.691934,14.16 C224.85913,14.4915 225.889628,13.4235 225.34734,12.5745 C224.201174,12.5505 224.023916,13.4235 223.691934,14.16 M208.721174,4.041 C209.532353,4.7355 210.094169,5.9655 210.779165,6.966 C211.202781,7.6065 211.642921,7.92 211.50472,8.916 C211.378536,9.804 210.648475,10.125 210.37658,10.9875 C211.015008,11.169 211.671462,10.701 212.16568,10.4415 C212.602816,10.209 213.370431,9.7995 213.489104,9.2205 C213.673872,8.3415 212.913768,6.7995 213.154117,5.8095 C213.257768,5.415 214.070449,4.704 214.415951,4.7115 C214.792999,4.722 215.287217,5.541 215.544091,5.751 C216.226082,6.3075 218.820353,7.5855 219.057698,8.6145 C219.227445,9.3705 218.617558,10.221 219.12079,10.8045 C219.723165,10.2975 220.520824,9.867 220.776196,8.979 C220.849803,8.7195 220.776196,8.418 220.843794,8.127 C220.99251,7.4565 221.633942,6.567 222.171724,6.1755 C222.662938,5.8095 223.465104,5.85 223.825628,5.322 C224.672859,5.4315 225.288755,5.7645 226.212597,5.8095 C226.460458,6.4605 226.993733,6.711 227.071846,7.395 C227.131934,7.932 226.507025,8.4675 227.00575,8.979 C227.210047,9.1875 227.797401,9.207 228.000196,9.3435 C229.265034,10.1745 227.552545,11.6385 227.798903,12.813 C227.925086,13.398 229.123829,14.5875 230.185872,14.586 C230.746187,15.3645 231.893855,15.6135 232.041069,16.7775 C231.564877,17.2305 230.740178,17.3655 230.185872,17.7525 C228.72575,17.5245 226.756388,17.5815 225.679322,18.1185 C225.242187,18.336 224.692388,18.7365 224.886169,19.3365 C226.042851,19.5915 227.345244,19.08 228.399776,19.4565 C229.170397,19.7325 230.179864,20.7165 229.918484,21.7725 C229.799811,22.254 229.290571,22.374 229.057733,22.8705 C229.051724,24.3045 230.007113,25.5525 229.658606,27.195 C229.463322,28.0875 228.108353,29.607 227.071846,29.4495 C226.624196,29.379 226.356807,28.716 225.813017,28.473 C224.612772,27.945 222.948353,28.128 221.510763,28.416 C221.072126,28.164 220.722117,27.768 220.378117,27.4395 C220.097209,27.1725 219.494833,26.787 219.38968,26.403 C219.140318,25.5525 219.672091,24.408 219.52037,23.541 C219.409209,22.9005 219.014134,22.5555 218.327637,22.2585 C216.992196,22.917 218.039217,25.3875 216.801418,26.1 C216.051829,26.529 214.629261,26.3145 213.690397,26.5875 C213.215707,26.724 212.975357,26.958 212.631357,27.195 C210.911357,26.3025 211.055567,23.688 209.913907,22.2585 C209.320545,24.0135 210.325506,26.3145 209.712615,27.8655 C209.355095,28.77 208.348632,28.8705 207.593034,29.4495 C204.925156,28.5135 205.848999,24.5475 206.005226,21.285 C206.071322,19.8285 206.526484,18.414 206.268108,17.202 C204.771934,17.352 204.162047,18.6045 203.023392,19.3365 C202.706431,19.536 202.257279,19.812 202.031951,19.8255 C201.135148,19.872 200.178257,18.4185 200.372038,17.505 C200.459165,17.0865 201.189226,16.521 201.564772,16.044 C204.153034,12.774 206.343217,8.0535 207.925017,4.101 C208.169872,4.062 208.405715,4.017 208.721174,4.041" id="Fill-15"></path>
            <path d="M249.397597,27.0123 C249.250383,27.7548 250.183238,28.4628 250.525736,27.6843 C250.358994,27.2778 250.031518,26.6073 249.397597,27.0123 M248.135762,24.5163 C248.331046,24.7443 248.723116,24.7908 249.133212,24.8193 C249.430645,24.5838 249.576356,24.2118 249.597387,23.7228 C248.873334,23.5308 248.218383,23.9103 248.135762,24.5163 M253.572164,23.8413 C253.226662,24.2013 253.402417,24.9648 253.639762,25.3068 C254.282697,25.3668 254.476479,25.0218 255.095378,25.0623 C255.5235,26.2683 254.114452,26.6718 253.971745,27.7458 C254.420898,27.6498 255.015762,27.5418 255.427361,27.7458 C256.7613,26.9763 256.22502,24.2073 255.22757,23.4783 C254.596653,23.5308 254.027326,23.6343 253.572164,23.8413 M253.971745,20.7363 C253.226662,21.3318 251.641859,21.1548 250.393544,21.2853 C250.318435,21.7068 249.953404,21.8538 249.995466,22.3848 C250.573806,22.6713 251.796583,22.7883 252.377928,22.6278 C252.849614,22.4913 253.104985,21.8223 253.639762,21.5913 C254.300723,21.3033 254.873055,21.7128 255.298173,21.1023 C254.853527,20.9808 254.293212,20.9688 253.971745,20.7363 M251.518679,19.3953 C252.220199,19.4553 252.849614,19.4028 253.244688,19.0278 C252.896182,18.9753 252.930732,18.3963 253.043396,18.1188 C252.069981,17.6193 251.665893,18.9408 251.518679,19.3953 M247.609998,15.6198 C247.902924,15.4413 248.179326,15.2523 248.206365,14.8278 C247.453771,13.9098 246.354173,15.3093 247.609998,15.6198 M251.119099,14.8278 C251.233265,15.4803 250.567797,15.4113 250.653422,16.0443 C251.894225,17.0823 253.599203,15.9933 253.504566,14.5248 C252.676863,13.4913 251.933282,14.4873 251.119099,14.8278 M252.445527,7.5783 C253.268723,7.8903 254.449439,7.6923 254.963186,7.2048 C255.015762,6.4998 255.233579,6.0348 255.095378,5.3853 C255.015762,5.0178 254.586138,4.7643 254.56661,4.4688 C254.554592,4.2468 254.830994,3.8283 254.963186,3.6798 C255.391308,3.1713 256.298627,2.6328 257.148863,2.4618 C257.826348,3.3408 259.466732,3.6558 259.268444,5.1348 C259.588409,5.7903 260.64895,5.4183 261.194243,5.8098 C261.418068,5.9733 261.949841,7.0443 261.855203,7.4553 C261.593824,8.5518 259.633474,7.8348 258.343099,8.1873 C257.988583,8.2833 257.787291,8.7033 257.416252,8.9163 C256.776321,9.2883 256.001195,9.3543 255.298173,9.4038 C255.215553,9.6378 255.194522,10.1733 255.22757,10.3203 C257.794802,10.1013 261.212269,10.0878 263.181631,9.2823 C264.351832,9.6498 264.967728,10.5483 265.762383,11.4783 C266.019256,11.7768 266.432356,12.0858 266.490941,12.3318 C266.64116,12.9573 266.250592,13.3413 265.762383,13.7343 C265.440915,13.9878 264.852059,14.5248 264.505055,14.5848 C263.817055,14.7003 262.076024,14.2503 261.194243,14.1603 C259.975972,14.0283 258.804269,13.8963 257.812828,14.0973 C257.641579,14.6133 258.035151,14.6793 258.014121,15.0093 C257.97957,15.4353 257.333631,15.8118 256.885981,16.2273 C256.584042,16.5063 255.706767,17.2428 255.693247,17.3853 C255.670714,17.6463 256.626103,18.3123 256.885981,18.4803 C257.299081,18.7593 258.08923,18.9648 258.404688,19.2768 C259.023588,19.8723 258.61199,20.6823 258.343099,21.5913 C259.45171,21.9513 260.471693,22.3923 260.99295,23.2908 C260.584356,24.9498 260.162243,26.7288 259.732618,28.4163 C259.588409,28.9773 259.565876,29.6883 259.33454,30.1173 C259.124234,30.5193 258.011116,31.4328 257.479343,31.3998 C257.090278,31.3743 256.735762,30.8163 256.35571,30.6078 C255.75033,30.2748 254.721334,29.9553 253.572164,29.9403 C252.687378,29.9253 252.304321,30.2283 251.383483,30.3003 C251.180688,30.3213 250.884758,30.2178 250.59033,30.2433 C249.758121,30.3213 248.509806,31.1253 247.609998,30.8523 C247.202907,30.7293 246.656112,30.0303 246.549457,29.5743 C246.424776,29.0208 246.731221,28.4928 246.614051,27.9258 C246.559972,27.6558 246.215972,27.4878 246.020688,27.1338 C245.718749,26.5923 245.759308,25.5528 245.556514,24.6933 C245.43033,24.1773 245.132898,23.7843 245.355221,23.1108 C245.53999,22.5753 246.061247,22.3248 246.549457,21.8343 C246.565981,21.4503 246.116828,21.4998 246.020688,21.2223 C246.492374,20.6688 246.354173,19.8903 246.876933,19.4553 C247.335099,19.0788 248.114732,19.1868 248.406155,18.6033 C247.787256,18.5448 247.305055,18.7128 246.876933,18.5448 C246.520915,18.4038 245.655658,17.2233 245.62261,16.7778 C245.571535,16.0923 246.599029,15.3228 245.355221,15.1308 C244.749841,15.0393 243.656252,15.3543 242.971256,15.8643 C242.487553,15.7428 241.916723,15.6993 241.380444,15.6198 C240.880217,14.6193 240.162173,13.8138 239.263867,13.1823 C239.196269,12.8988 239.211291,12.5703 239.326959,12.2673 C239.501212,11.8233 240.159169,10.8918 240.522697,10.7433 C241.140094,10.4913 242.133038,10.9293 242.906662,10.9878 C244.936112,11.1408 247.42523,10.3368 249.067116,10.1958 C249.133212,9.5478 247.728671,9.0258 247.015134,9.4668 C245.708234,9.1038 244.876024,8.2998 244.166994,7.3938 C244.275151,7.1298 244.333736,6.8193 244.297684,6.4188 C246.577998,6.7098 245.62261,4.5108 246.215972,3.1293 C246.406749,2.6928 247.237457,1.8138 248.006575,1.9698 C248.742645,2.1258 249.172269,3.4353 249.729579,3.6798 C250.151693,3.8583 250.563291,3.8283 250.923815,3.9828 C252.184147,4.5183 252.410976,5.6853 252.445527,7.5783" id="Fill-3"></path>
            <path d="M292.52378,19.5804 C292.397597,20.8239 291.572898,22.3479 292.329998,23.4789 C294.18219,22.7424 294.855169,20.9259 295.442522,19.0284 C294.545719,18.4269 293.091605,18.9789 292.52378,19.5804 M292.591378,15.9864 C292.719064,16.5834 293.11564,16.9269 293.455134,17.3259 C294.57426,17.2149 295.254749,16.3764 295.112042,15.3144 C294.16116,15.2649 292.948898,15.2019 292.591378,15.9864 M287.426872,7.2759 C288.983134,6.8034 289.618557,7.5159 290.208915,8.4294 C290.455273,8.8134 290.734679,9.3384 290.739186,9.7719 C290.745195,10.4529 290.082732,11.8359 289.417265,11.9634 C288.935064,12.0534 288.688706,11.7069 288.221527,11.5974 C287.946627,11.5329 287.685247,11.6049 287.491466,11.5359 C286.650243,11.2659 285.82254,9.8439 284.975308,9.8304 C284.058976,9.8184 283.767553,11.0544 283.516688,11.5974 C284.933247,12.3354 286.540583,10.7034 287.293177,11.9634 C287.434383,12.2019 287.634173,12.6429 287.623658,12.8784 C287.568077,14.2779 285.235186,14.0424 285.302784,15.4929 C285.784985,15.8124 286.734365,15.4809 287.426872,15.6789 C288.220024,16.6809 287.937614,17.7639 287.159483,18.5454 C286.312252,19.3899 284.3504,19.6494 285.172094,21.2844 C286.3453,21.0729 286.629212,19.1244 288.153928,20.0049 C288.25157,20.7864 288.212514,21.6954 288.421317,22.3839 C288.29964,22.9479 286.268688,23.4624 287.228583,24.2109 C287.57709,24.4839 288.189981,24.3279 288.421317,24.2109 C288.941072,23.9499 289.445806,22.9509 289.546452,22.1979 C289.585509,21.8994 289.463832,21.5499 289.480356,21.2229 C289.495378,20.9499 289.624566,20.7219 289.611046,20.4939 C289.584007,19.6794 289.005666,19.0899 289.148374,18.2979 C289.217474,17.9139 289.630575,17.5584 289.677142,17.2029 C289.882941,15.5349 289.879937,13.7424 289.879937,12.1479 C290.94799,11.3229 292.714557,12.2049 293.256845,12.9954 C294.529195,12.8649 294.769544,13.6824 295.374924,14.1594 C295.627291,13.6689 295.942749,12.9249 295.708409,12.4509 C295.27578,11.5944 293.76909,12.4764 292.791169,12.1479 C292.513265,11.7069 292.314976,11.1024 292.194802,10.3809 C292.101666,9.8094 291.880845,8.7669 292.065614,8.3724 C292.274417,7.9074 292.911343,7.9659 293.52123,7.8189 C294.010941,7.7019 294.745509,7.3404 295.513125,7.0269 C296.09447,6.7884 297.09192,6.2784 297.628199,6.3564 C298.042802,6.4224 298.244094,6.8919 298.61964,7.2759 C299.60357,8.2629 300.946522,9.0519 301.53688,10.2564 C301.090732,11.6574 300.465824,13.0074 300.013666,14.4609 C299.570522,15.8964 299.086819,17.3304 298.491955,18.6639 C299.173946,19.8534 298.365771,21.4239 298.15847,22.3239 C300.189422,22.4469 301.296531,23.4189 302.731116,24.0909 C303.202802,25.1679 304.255832,26.8974 303.525771,28.3509 C303.241859,28.9164 302.456217,29.7339 301.670575,29.7534 C300.163885,29.7969 299.911518,27.9309 299.019221,27.0759 C298.576077,26.6499 297.809963,26.1894 297.096426,25.7349 C296.421946,25.2999 295.481579,24.4074 294.713963,24.6924 C294.062016,24.9414 293.614365,26.8809 293.256845,27.6219 C292.68902,28.8054 292.146732,29.5014 291.267955,30.0549 C289.590016,29.5119 289.023693,27.9384 288.024741,26.7684 C287.45992,27.2244 286.860548,28.3209 285.769963,28.4739 C284.846121,28.6059 283.722487,28.2774 282.725038,28.3509 C281.738103,28.4304 280.844304,28.9239 280.204374,29.3289 C279.58247,29.7249 278.588024,30.6534 277.951099,30.6686985 C275.972723,30.6939 277.522976,27.4644 276.827466,26.2224 C277.132409,25.0944 279.69964,25.7184 279.669597,24.4479 C279.660583,23.8374 279.106278,23.7699 278.816356,23.2914 C279.124304,22.0779 279.474313,19.7184 280.999029,19.9449 C281.448182,20.0109 282.044548,20.8824 282.32095,21.2229 C282.89178,20.9559 282.676968,20.2689 282.32095,19.9449 C282.03854,19.7694 281.721579,19.9449 281.331011,19.7604 C280.665544,19.4454 279.854365,17.9994 280.069177,17.2629 C280.293003,16.4889 282.360007,16.3464 282.725038,15.6189 C282.597352,14.9259 281.617928,15.0069 281.266417,14.5239 C280.398155,15.6339 279.280531,17.5254 277.8835,18.5454 C277.308164,18.9654 276.104915,19.5669 275.301247,19.4559 C274.173107,19.2954 274.152077,17.9454 273.650348,17.0829 C273.808077,16.0044 273.799064,15.1299 274.440496,14.5854 C274.871623,14.2149 275.397387,14.0109 275.766924,13.7349 C277.652164,12.2904 278.948548,9.6504 279.872391,7.2054 C280.243431,6.2274 280.333562,5.1039 280.802243,3.9834 C281.15826,3.1254 282.48619,2.7669 283.716479,2.8269 C284.2813,3.2754 284.7635,3.8079 285.236688,4.3479 C285.878121,4.6479 286.555605,4.6299 286.830505,5.1999 C287.109911,5.7774 286.503029,6.9084 287.426872,7.2759" id="Fill-7"></path>
            <path d="M322.404611,9.6495 C319.17041,9.417 318.240559,11.622 316.708332,12.7575 C315.852087,12.7575 315.48255,12.0645 315.182114,11.412 C314.723948,10.407 314.055476,9.3435 314.722445,8.187 C315.467528,6.885 317.469939,6.0075 318.100856,4.1655 C318.498934,3.0015 318.419319,2.0445 319.82386,2.031 C320.843843,2.0205 320.947493,2.6925 321.611459,3.189 C322.209328,3.6435 322.892821,3.726 323.134672,4.227 C323.343476,4.6515 323.329956,5.496 323.334463,6.2955 C323.343476,7.932 323.582323,9.075 322.404611,9.6495" id="Fill-17"></path>
            <path d="M334.197652,3.43485 C335.292744,4.37235 336.697286,4.86585 336.9827,6.72585 C337.236569,8.40285 336.994718,9.00585 335.722369,9.70635 C335.121495,10.03785 334.582211,10.50735 334.068465,10.68285 C332.522718,11.21685 329.82029,10.78485 328.635067,9.95385 C328.226473,9.66585 327.897495,9.19335 327.506928,8.79735 C326.919574,8.19435 326.438875,7.86435 326.58008,6.84585 C326.785879,5.35935 328.943015,3.63735 330.620954,3.43485 C331.900814,3.27585 333.009425,3.45435 334.197652,3.43485" id="Fill-19"></path>
            <path d="M326.114554,13.30275 C327.613733,13.06425 329.629663,13.26675 331.282065,13.18125 C332.214921,13.13475 333.032108,12.87975 333.934921,12.69675 C334.82872,12.50775 335.746554,12.45975 336.58327,12.26775 C338.273226,11.87925 339.958676,11.31675 341.882973,11.47725 C342.634065,12.49125 341.665156,13.86075 341.749279,15.12975 C341.795846,15.81975 342.354659,16.38975 342.279549,17.02125 C342.186414,17.82075 341.294117,18.23175 340.823934,18.72975 C339.198571,18.76725 337.286292,18.08325 336.054501,18.84825 C335.995916,21.36975 335.872737,23.73675 335.459637,26.09925 C335.291392,27.05475 335.133663,28.32825 334.661977,29.26575 C334.256388,30.07275 333.431689,31.13025 332.60699,31.27725 C331.937017,31.40025 330.485907,31.29075 330.026239,31.03425 C329.526012,30.76275 329.264632,29.70825 328.435427,29.39175 C328.010309,29.22525 327.526606,29.34375 327.1781,29.20575 C326.769506,29.04675 325.90575,27.86775 325.851672,27.44025 C325.779567,26.85075 326.1461,26.54325 326.515637,26.22225 C328.91913,27.13575 330.527969,25.42575 330.685698,23.05275 C330.793855,21.46575 330.849436,19.58925 330.289121,19.02825 C329.027287,18.66375 327.597209,19.31325 326.515637,18.96975 C326.105541,18.84075 325.693942,17.98725 325.452091,17.63025 C325.091567,17.08425 324.806152,16.65225 324.328458,16.35075 C323.168772,17.04975 321.638047,17.40825 320.883951,18.48075 C320.768283,21.60525 321.579462,25.61475 320.419776,27.98325 C320.14037,28.54875 319.553017,29.50875 318.698274,29.51175 C317.905121,29.51175 317.017331,28.41525 316.577191,27.68325 C315.790047,26.37825 316.147567,24.43425 316.377401,22.69125 C315.581244,23.04975 314.317907,23.57775 313.463165,24.15225 C313.10865,24.38475 312.76465,24.90225 312.335025,24.94125 C311.683078,25.00125 310.667602,24.02175 310.479829,23.54025 C310.063724,22.46475 311.022117,20.72775 311.541872,20.12625 C311.842309,19.77525 312.471724,19.46025 312.92989,19.08975 C315.842624,16.77825 319.219532,13.77825 321.013139,10.56225 C323.625436,9.12825 324.798641,12.15825 326.114554,13.30275" id="Fill-21"></path>
            <path d="M335.746704,38.30175 C335.590477,39.84375 335.725673,41.64975 335.680608,43.29825 C339.706459,44.22075 339.698948,37.44975 335.746704,38.30175 M333.960608,36.77775 C335.901429,36.83625 337.606407,36.58125 338.797638,37.26375 C341.123018,38.60475 341.178599,43.35225 338.39956,44.51625 C337.139228,45.03825 335.82632,44.72475 333.89301,44.81775 L333.89301,36.95775 C333.890005,36.87525 333.880992,36.78675 333.960608,36.77775" id="Fill-31"></path>
            <path d="M153.36196,43.48215 C156.142501,43.79115 156.064388,37.56315 153.228266,38.18115 C151.224353,38.61015 151.328003,43.25415 153.36196,43.48215 M153.160667,36.65565 C154.114554,36.55365 155.209645,36.79515 155.815025,37.26315 C157.580091,38.64315 157.79941,42.77265 155.815025,44.32815 C154.813069,45.11565 152.552283,45.25665 151.373069,44.32815 C149.816807,43.11315 149.632038,39.88665 150.512318,38.30115 C151.044091,37.33965 151.811707,36.80415 153.160667,36.65565" id="Fill-33"></path>
            <path d="M86.6424838,37.1424 L86.6424838,38.9694 C86.0025537,38.7399 85.5098376,38.1624 84.5935057,38.0589 C83.8078638,37.9659 82.7172786,38.1414 82.8044052,38.9694 C82.8960384,39.8334 85.7742218,40.0029 86.4487022,40.8009 C86.7100821,41.1069 86.8708157,41.5479 86.9098725,42.0189 C87.1502218,44.9529 83.4848943,45.6534 80.8816105,44.3949 L80.8816105,42.4464 C81.590641,42.7494 82.2440908,43.4334 83.2655755,43.5429 C84.0452087,43.6209 84.9930865,43.4769 85.0576803,42.8064 C85.1493135,41.8629 84.1083004,41.8959 83.4007721,41.7129 C81.9887197,41.3514 80.9356891,40.6884 80.9477066,39.1584 C80.9657328,36.7779 84.2014358,35.9364 86.6424838,37.1424" id="Fill-35"></path>
            <path d="M117.915539,37.2639 L117.915539,39.1584 C116.942124,38.6244 115.884587,37.7544 114.535626,38.2389 C112.255312,39.0624 112.590299,44.1954 115.995748,43.5429 C116.150473,43.1139 116.016779,42.4239 116.060342,41.8959 L114.670823,41.8959 L114.670823,40.3719 L117.915539,40.3719 L117.915539,44.3949 C116.375801,45.1209 113.906211,45.2319 112.684936,44.2704 C111.002491,42.9519 110.804203,39.4824 112.217757,37.8114 C113.42401,36.3984 116.027294,36.2529 117.915539,37.2639" id="Fill-37"></path>
            <path d="M149.120996,37.2639 L149.120996,39.2154 C148.363895,38.9334 148.111528,38.2539 147.331895,38.1189 C143.914428,37.5249 144.168297,44.5644 147.662376,43.3599 C148.282777,43.1424 148.503598,42.6084 149.120996,42.3834 L149.120996,44.2134 C148.225694,44.9994 146.40655,45.2949 145.080122,44.7009 C142.637572,43.6014 142.440786,39.1434 144.285467,37.4499 C145.324978,36.4899 147.788559,36.2874 149.120996,37.2639" id="Fill-39"></path>
            <path d="M196.420695,37.2639 L196.420695,39.2154 C195.662093,38.9334 195.41273,38.2539 194.636101,38.1189 C191.218634,37.5249 191.469499,44.5644 194.968084,43.3599 C195.583979,43.1424 195.803298,42.6084 196.420695,42.3834 L196.420695,44.2134 C195.653079,44.7399 194.968084,45.0864 193.704748,45.0069 C190.179123,44.7639 189.313866,39.5409 191.586669,37.4499 C192.629184,36.4899 195.088259,36.2949 196.420695,37.2639" id="Fill-41"></path>
            <path d="M223.71672,43.17675 C222.985156,42.54975 222.3963,41.79075 221.669244,41.16525 C220.586169,42.53025 222.463899,44.52225 223.71672,43.17675 M222.52699,39.70275 C222.968632,39.37725 223.21499,38.28075 222.722274,37.81125 C221.137471,37.36875 221.616667,39.59025 222.52699,39.70275 M223.187951,40.37175 C223.593541,40.95525 224.125314,41.42325 224.646571,41.89575 L224.646571,40.12725 L226.435672,40.12725 C226.477733,41.34975 226.271934,42.33075 225.708615,42.99075 C226.258414,43.62075 226.949418,44.12325 227.428615,44.81775 C226.237383,44.81325 224.828335,45.01725 224.578973,44.15175 C223.577017,45.08925 221.404859,45.37725 220.272213,44.32875 C219.1621,43.30875 219.339357,40.99575 220.805488,40.37175 C219.943235,39.70725 219.441506,38.02575 220.473506,37.14225 C221.627183,36.15075 224.56996,36.44775 224.778763,38.11875 C224.904947,39.14775 224.301069,40.04175 223.187951,40.37175" id="Fill-43"></path>
            <path d="M236.771294,37.1424 L236.771294,38.9694 C235.958613,38.5854 234.887556,37.7244 233.592674,38.1189 C233.208115,38.2359 232.882141,38.5284 232.925705,38.9694 C233.023347,39.8979 236.006683,39.8979 236.703696,40.9809 C236.883958,41.2554 236.999626,41.6214 237.032674,42.0189 C237.29105,44.9499 233.600185,45.6534 231.007417,44.3949 L231.007417,42.4464 C231.705932,42.7584 232.371399,43.4289 233.389879,43.5429 C234.16801,43.6224 235.114386,43.4754 235.17898,42.8064 C235.270613,41.8629 234.231102,41.8959 233.525076,41.7129 C232.081478,41.3454 230.95484,40.5954 231.07201,38.9694 C231.237251,36.6699 234.441408,36.0039 236.771294,37.1424" id="Fill-45"></path>
            <path d="M272.546543,37.2639 L272.546543,39.1584 C271.573128,38.6244 270.514089,37.7544 269.166631,38.2389 C266.88181,39.0624 267.228814,44.1909 270.622246,43.5429 C270.776971,43.1139 270.644779,42.4239 270.691347,41.8959 L269.300325,41.8959 L269.300325,40.3719 L272.546543,40.3719 L272.546543,44.3949 C270.8656,45.2229 268.29236,45.1719 267.114648,44.0904 C264.672098,41.8479 265.95346,36.8619 269.432517,36.5964 C270.683836,36.5004 271.54008,36.8394 272.546543,37.2639" id="Fill-47"></path>
            <path d="M279.502854,37.1424 L279.502854,38.9694 C278.862924,38.7399 278.364199,38.1624 277.446365,38.0589 C276.660723,37.9659 275.570138,38.1414 275.658767,38.9694 C275.747396,39.8334 278.625579,40.0029 279.300059,40.8009 C279.570452,41.1069 279.725177,41.5479 279.767238,42.0189 C280.003081,44.9544 276.340758,45.6534 273.737474,44.3949 L273.737474,42.4464 C274.440496,42.7569 275.095448,43.4334 276.125946,43.5429 C276.898068,43.6209 277.844444,43.4769 277.912042,42.8064 C278.030714,41.6109 275.221631,41.7129 274.398435,40.8579 C274.022889,40.4649 273.799064,39.8199 273.805072,39.1584 C273.826103,36.6399 277.108374,36.0324 279.502854,37.1424" id="Fill-49"></path>
            <path d="M62.3317485,36.77835 L62.3317485,38.30235 L60.2106655,38.30235 C60.058945,40.35285 60.1866306,42.67035 60.149076,44.81835 L58.3584734,44.81835 L58.3584734,38.30235 L56.1727965,38.30235 L56.1727965,36.77835 L62.3317485,36.77835 Z" id="Fill-51"></path>
            <path d="M65.1806393,36.77835 L65.1806393,39.70335 L67.8304908,39.70335 C67.9837135,38.84685 67.8515214,37.72935 67.8980891,36.77835 L69.6871895,36.77835 L69.6871895,44.81835 L67.8980891,44.81835 L67.8980891,41.22135 L65.2452332,41.22135 C65.0920105,42.29835 65.2257048,43.64085 65.1806393,44.81835 L63.3945432,44.81835 L63.3945432,36.77835 L65.1806393,36.77835 Z" id="Fill-53"></path>
            <path d="M76.5116087,36.77835 L76.5116087,38.30235 L73.2653904,38.30235 C73.1076611,38.64435 73.2383511,39.25635 73.1977921,39.70335 L76.2412157,39.70335 L76.2412157,41.22135 L73.1977921,41.22135 L73.1977921,43.23285 C74.1727092,43.37985 75.4270323,43.25685 76.5116087,43.29735 L76.5116087,44.81835 L71.4101939,44.81835 L71.4101939,36.77835 L76.5116087,36.77835 Z" id="Fill-55"></path>
            <path d="M89.8272629,36.77835 L89.8272629,39.70335 L92.4786166,39.70335 C92.6288349,38.84685 92.498145,37.72935 92.5417083,36.77835 L94.3293066,36.77835 L94.3293066,44.81835 L92.5417083,44.81835 L92.5417083,41.22135 L89.893359,41.22135 C89.7371319,42.29835 89.8708262,43.64085 89.8272629,44.81835 L88.0381624,44.81835 L88.0381624,36.77835 L89.8272629,36.77835 Z" id="Fill-57"></path>
            <path d="M98.1054952,41.71335 L99.8330061,41.71335 C99.4995214,40.79535 99.3823511,39.68535 98.898648,38.91285 C98.6733205,39.87585 98.3563598,40.76535 98.1054952,41.71335 L98.1054952,41.71335 Z M100.026788,36.77835 C100.896552,39.43335 101.70022,42.14085 102.61505,44.76135 C102.12684,44.90235 101.353216,44.77935 100.755347,44.81835 C100.62015,44.26035 100.414351,43.75935 100.295679,43.17735 L97.7089188,43.17735 C97.4685694,43.66185 97.3604122,44.27835 97.178648,44.81835 L95.3910498,44.81835 C96.3073817,42.17235 97.0524646,39.36585 98.0409013,36.77835 L100.026788,36.77835 Z" id="Fill-59"></path>
            <path d="M105.660426,36.77835 C106.528688,38.31285 107.464548,39.79185 108.310278,41.34885 C108.465003,39.94635 108.33281,38.27985 108.374872,36.77835 L109.967186,36.77835 L109.967186,44.81835 L108.310278,44.81835 C107.264758,42.99735 106.192199,41.20335 105.193247,39.33885 C105.040024,41.04285 105.178225,43.00785 105.128653,44.81835 L103.537841,44.81835 L103.537841,36.77835 L105.660426,36.77835 Z" id="Fill-61"></path>
            <path d="M121.229355,36.77835 L121.229355,39.70335 L123.877705,39.70335 C124.03243,38.84685 123.900238,37.72935 123.943801,36.77835 L125.734403,36.77835 L125.734403,44.81835 L123.943801,44.81835 L123.943801,41.22135 L121.298456,41.22135 C121.142229,42.29835 121.269914,43.64085 121.229355,44.81835 L119.441757,44.81835 L119.441757,36.77835 L121.229355,36.77835 Z" id="Fill-63"></path>
            <path d="M129.511944,41.71335 L131.234948,41.71335 C130.910477,40.79385 130.785796,39.68985 130.305097,38.91285 C130.075263,39.87885 129.7568,40.76235 129.511944,41.71335 L129.511944,41.71335 Z M131.430232,36.77835 C132.299997,39.43035 133.106669,42.14085 134.01549,44.76135 C133.52728,44.90235 132.758162,44.77935 132.160293,44.81835 C132.019088,44.26035 131.814791,43.75935 131.694617,43.17735 L129.113866,43.17735 C128.870512,43.66185 128.766861,44.27835 128.58059,44.81835 L126.792992,44.81835 C127.710826,42.16935 128.461918,39.37035 129.442844,36.77835 L131.430232,36.77835 Z" id="Fill-65"></path>
            <path d="M138.718676,36.77835 L138.718676,38.23935 L137.596545,38.23935 L137.596545,43.29735 C137.836894,43.43685 138.367165,43.31835 138.718676,43.36035 L138.718676,44.81835 L134.677803,44.81835 L134.677803,43.36035 L135.80444,43.36035 L135.80444,38.30235 C135.559584,38.16285 135.032318,38.27985 134.677803,38.23935 L134.677803,36.77835 L138.718676,36.77835 Z" id="Fill-67"></path>
            <path d="M160.714547,36.77835 C161.190739,38.14185 161.778093,39.41385 162.236259,40.80135 C162.898721,39.56235 163.284783,38.06385 163.891665,36.77835 L165.946652,36.77835 L165.946652,44.81835 L164.159053,44.81835 L164.159053,39.51735 C163.649813,40.59435 163.304311,41.81835 162.832625,42.92985 L161.641394,42.92985 C161.193743,41.81835 160.780643,40.67835 160.382564,39.51735 C160.227839,41.16585 160.361534,43.07535 160.313464,44.81835 L158.594966,44.81835 L158.594966,36.77835 L160.714547,36.77835 Z" id="Fill-69"></path>
            <path d="M169.790739,36.77835 C170.265429,38.14785 170.855787,39.41085 171.313953,40.80135 C171.976416,39.56235 172.362477,38.06385 172.967857,36.77835 L175.021341,36.77835 L175.021341,44.81835 L173.235245,44.81835 L173.235245,39.51735 C172.71549,40.58685 172.392521,41.83485 171.91032,42.92985 L170.717586,42.92985 C170.271438,41.81835 169.856835,40.67835 169.458756,39.51735 C169.307036,41.16585 169.436224,43.07535 169.391158,44.81835 L167.67266,44.81835 L167.67266,36.77835 L169.790739,36.77835 Z" id="Fill-71"></path>
            <path d="M181.846362,36.77835 L181.846362,38.30235 L178.601645,38.30235 C178.448423,38.64435 178.580615,39.25635 178.534047,39.70335 L181.584982,39.70335 L181.584982,41.22135 L178.534047,41.22135 L178.534047,43.23285 C179.510466,43.37985 180.763287,43.25685 181.846362,43.29735 L181.846362,44.81835 L176.746449,44.81835 L176.746449,36.77835 L181.846362,36.77835 Z" id="Fill-73"></path>
            <path d="M185.095584,38.2395 L185.095584,40.434 C187.898659,41.208 188.003811,37.428 185.095584,38.2395 M187.743934,41.4075 C188.448458,42.5895 189.319724,43.617 189.998711,44.8185 L187.81003,44.8185 C187.574187,44.4015 187.215165,43.968 186.817086,43.3605 C186.45506,42.8025 186.246257,41.7225 185.160178,41.8965 C185.005453,42.7485 185.136143,43.866 185.095584,44.8185 L183.306484,44.8185 L183.306484,36.7785 C186.153121,36.7425 188.882589,36.4485 189.136458,38.6655 C189.271654,39.8715 188.735375,40.8195 187.743934,41.4075" id="Fill-75"></path>
            <path d="M201.524363,36.77835 L201.524363,38.23935 L200.40073,38.23935 L200.40073,43.29735 C200.644084,43.43685 201.169848,43.31835 201.524363,43.36035 L201.524363,44.81835 L197.481988,44.81835 L197.481988,43.36035 L198.608625,43.36035 L198.608625,38.30235 C198.365272,38.16285 197.836503,38.27985 197.481988,38.23935 L197.481988,36.77835 L201.524363,36.77835 Z" id="Fill-77"></path>
            <path d="M204.970222,41.71335 L206.693226,41.71335 C206.37927,40.76235 206.209523,39.68235 205.764877,38.84685 C205.565086,39.86235 205.209069,40.73535 204.970222,41.71335 L204.970222,41.71335 Z M206.893017,36.77835 C207.756772,39.43335 208.566449,42.14085 209.47527,44.76135 C208.985558,44.90235 208.21644,44.77935 207.618571,44.81835 C207.48037,44.26035 207.274571,43.75935 207.154397,43.17735 L204.572143,43.17735 C204.32879,43.66185 204.226641,44.27835 204.044877,44.81835 L202.254274,44.81835 C203.170606,42.17235 203.920196,39.36585 204.901121,36.77835 L206.893017,36.77835 Z" id="Fill-79"></path>
            <path d="M212.256713,36.77835 L212.256713,43.23285 C213.207595,43.37985 214.440887,43.25685 215.502931,43.29735 L215.502931,44.81835 L210.469114,44.81835 C210.511176,42.16185 210.381988,39.33885 210.53521,36.77835 L212.256713,36.77835 Z" id="Fill-81"></path>
            <path d="M240.214299,41.71335 L241.937303,41.71335 C241.617338,40.76535 241.461111,39.67635 241.008954,38.84685 C240.821181,39.87135 240.450141,40.72785 240.214299,41.71335 L240.214299,41.71335 Z M242.132587,36.77835 C242.999347,39.43335 243.812028,42.13635 244.720849,44.76135 C244.237146,44.90235 243.460517,44.77935 242.86415,44.81835 C242.725949,44.26035 242.517146,43.75935 242.399976,43.17735 L239.820727,43.17735 C239.571364,43.66185 239.466211,44.27835 239.288954,44.81835 L237.499853,44.81835 C238.416185,42.17235 239.16277,39.35985 240.149705,36.77835 L242.132587,36.77835 Z" id="Fill-83"></path>
            <path d="M244.915983,36.83625 C245.404192,36.69975 246.177817,36.82125 246.771179,36.77775 C247.305956,38.70825 247.956402,40.52775 248.432594,42.50475 C249.159651,40.72275 249.61331,38.67675 250.21869,36.77775 L252.009293,36.77775 C251.157555,39.45075 250.280279,42.09675 249.488629,44.81775 L247.433642,44.81775 C246.638987,42.11775 245.799266,39.46275 244.915983,36.83625" id="Fill-85"></path>
            <path d="M256.780828,36.77835 L256.780828,38.23935 L255.649684,38.23935 L255.649684,43.29735 C255.897544,43.43685 256.421806,43.31835 256.780828,43.36035 L256.780828,44.81835 L252.73695,44.81835 L252.73695,43.36035 L253.863588,43.36035 L253.863588,38.30235 C253.620234,38.16285 253.091466,38.27985 252.73695,38.23935 L252.73695,36.77835 L256.780828,36.77835 Z" id="Fill-87"></path>
            <path d="M260.35302,36.77835 C261.221282,38.31585 262.163151,39.78435 263.004374,41.34885 C263.159099,39.94635 263.025404,38.27985 263.07047,36.77835 L264.65978,36.77835 L264.65978,44.81835 L263.004374,44.81835 C261.960356,42.99735 260.8893,41.20335 259.890348,39.33885 C259.737125,41.04285 259.867815,43.00785 259.824252,44.81835 L258.236444,44.81835 L258.236444,36.77835 L260.35302,36.77835 Z" id="Fill-89"></path>
            <path d="M288.180066,41.65035 C287.836066,41.19885 286.888189,41.39835 285.992887,41.34885 L285.992887,43.36035 C287.601726,43.75935 289.009272,42.74235 288.180066,41.65035 L288.180066,41.65035 Z M285.992887,39.94635 C286.749988,39.97185 287.492066,39.98235 287.781988,39.58185 C288.208608,38.41785 287.242704,38.06085 285.992887,38.23935 L285.992887,39.94635 Z M288.710337,40.37235 C290.102861,40.64235 290.564031,42.58785 289.772381,43.78785 C288.827507,45.20685 286.541184,44.74035 284.203787,44.81835 C284.248852,42.16185 284.121167,39.33735 284.269883,36.77835 C285.740521,36.91785 287.501079,36.51135 288.645743,36.95835 C290.035263,37.50585 290.002215,39.74085 288.710337,40.37235 L288.710337,40.37235 Z" id="Fill-91"></path>
            <path d="M293.547668,41.71335 L295.26917,41.71335 C294.941694,40.79535 294.824524,39.68535 294.339319,38.91285 C294.124507,39.88785 293.785013,40.75485 293.547668,41.71335 L293.547668,41.71335 Z M295.468961,36.77835 C296.331214,39.43335 297.143895,42.14085 298.051214,44.76135 C297.564507,44.90235 296.792384,44.77935 296.19752,44.81835 C296.05331,44.26035 295.850515,43.75935 295.730341,43.17735 L293.148087,43.17735 C292.907738,43.66185 292.796576,44.27835 292.616314,44.81835 L290.827214,44.81835 C291.749555,42.17235 292.494638,39.36585 293.478568,36.77835 L295.468961,36.77835 Z" id="Fill-93"></path>
            <path d="M301.098243,36.77835 C301.958994,38.32185 302.909876,39.78135 303.749597,41.34885 C303.901317,39.94635 303.770627,38.27985 303.817195,36.77835 L305.406505,36.77835 L305.406505,44.81835 L303.749597,44.81835 C302.704077,42.99735 301.630016,41.20335 300.634068,39.33885 C300.479343,41.04285 300.61454,43.00785 300.567972,44.81835 L298.978662,44.81835 L298.978662,36.77835 L301.098243,36.77835 Z" id="Fill-95"></path>
            <path d="M307.127556,36.77835 L308.91215,36.77835 L308.91215,40.37235 C309.760884,39.40035 310.620133,37.91685 311.49891,36.77835 L313.486299,36.77835 C312.642072,38.07285 311.670159,39.25485 310.768849,40.49385 C311.709216,41.94435 312.738211,43.31385 313.618491,44.81835 L311.435818,44.81835 C310.72829,43.76235 310.080849,42.64635 309.313233,41.65035 C308.608709,42.17985 309.030823,43.74735 308.91215,44.81835 L307.127556,44.81835 L307.127556,36.77835 Z" id="Fill-97"></path>
            <path d="M323.02952,36.77835 L323.02952,43.23285 C323.9789,43.37985 325.216699,43.25685 326.272734,43.29735 L326.272734,44.81835 L321.241921,44.81835 C321.28248,42.16185 321.150288,39.33885 321.306515,36.77835 L323.02952,36.77835 Z" id="Fill-99"></path>
            <path d="M332.90232,36.77835 L332.90232,38.30235 L330.778232,38.30235 C330.626512,40.35285 330.757202,42.67035 330.712136,44.81835 L328.923036,44.81835 L328.923036,38.30235 L326.738861,38.30235 L326.738861,36.77835 L332.90232,36.77835 Z" id="Fill-101"></path>
            <path d="M316.470686,42.68385 C315.907368,44.03985 315.321516,45.36885 314.812276,46.77135 L313.750232,46.77135 C314.083717,45.42435 314.375141,44.05035 314.683088,42.68385 L316.470686,42.68385 Z" id="Fill-103"></path>
            <g id="Group" transform="translate(0.000000, -0.000750)">
                <path d="M-8.8817842e-14,23.2761 C-8.8817842e-14,23.8641 0.0285414847,24.4416 0.0691004367,25.0131 L6.57505677,25.0131 L6.5990917,25.1901 C7.30962445,31.3836 11.4301135,36.5646 17.0738166,38.9016 L17.0738166,27.3516 L13.5557031,27.3516 L13.5557031,31.4586 L13.1846638,30.9696 C11.9363493,29.3241 11.0755983,27.3666 10.7481223,25.2471 L10.7090655,25.0131 L19.1257991,25.0131 L19.1257991,42.0111 L18.8689258,41.9451 C11.7035109,40.1286 6.1198952,34.4676 4.55462009,27.3516 L0.366532751,27.3516 C2.26379039,37.9101 11.4391266,46.0221 22.6409083,46.5576 L22.6409083,21.5406 L10.7090655,21.5406 L10.7481223,21.3066 C11.0755983,19.1826 11.9363493,17.2371 13.1846638,15.5841 L13.5557031,15.0921 L13.5557031,19.2066 L17.0738166,19.2066 L17.0738166,7.6566 C11.4301135,9.9921 7.30962445,15.1731 6.5990917,21.3651 L6.57505677,21.5406 L4.19259389,21.5406 L4.21362445,21.3216 C5.05184279,13.2171 11.0049956,6.6036 18.8689258,4.6101 L19.1257991,4.5456 L19.1257991,19.2066 L22.6409083,19.2066 L22.6409083,0.0006 C10.0345852,0.6006 -8.8817842e-14,10.7916 -8.8817842e-14,23.2761" id="Fill-108"></path>
                <path d="M41.6444297,21.459 L41.5828402,21.5415 L35.9196087,21.5415 L34.0809362,19.0845 L34.0809362,15.0915 L34.4534777,15.588 C35.2751721,16.674 35.930124,17.8905 36.380779,19.206 L40.6469799,19.206 C39.3295651,13.986 35.5440629,9.7155 30.5658271,7.6575 L30.5658271,19.0905 C30.5658271,19.296 30.6274166,19.5045 30.7596087,19.68 L32.1566393,21.5415 L28.5123424,21.5415 L28.5123424,4.5465 L28.7737223,4.611 C35.9917135,6.441 41.6083773,12.1725 43.1180716,19.371 L43.1391022,19.464 L41.6444297,21.459 Z M43.1180716,27.1785 C41.6083773,34.3815 35.9917135,40.116 28.7737223,41.9445 L28.5123424,42.0105 L28.5123424,25.0125 L34.75091,25.0125 L36.4153293,27.2385 L36.380779,27.333 C35.9376349,28.653 35.2796786,29.877 34.4534777,30.9705 L34.0809362,31.458 L34.0809362,27.348 L30.5658271,27.348 L30.5658271,38.901 C35.266159,36.9525 38.919469,33.0375 40.4051284,28.2045 C40.492255,27.918 40.4456873,27.594 40.2534079,27.333 L38.5198882,25.0125 L41.5828402,25.0125 L43.1391022,27.0915 L43.1180716,27.1785 Z M44.4054428,23.2755 L47.0402725,19.761 C47.2190323,19.5255 47.282124,19.2375 47.2265432,18.9705 C45.1355039,8.5455 36.1178969,0.531 24.9972332,0 L24.9972332,46.557 C36.1178969,46.0245 45.1355039,38.0145 47.2265432,27.5805 C47.282124,27.321 47.2190323,27.0315 47.0402725,26.8005 L44.4054428,23.2755 Z" id="Fill-109"></path>
            </g>
        </g>
    </g>
</svg>