<?xml version="1.0" encoding="UTF-8"?>
<svg width="32px" height="32px" viewBox="0 0 32 32" version="1.1" xmlns="http://www.w3.org/2000/svg" xmlns:xlink="http://www.w3.org/1999/xlink">
    <title>Icons/account_overview Copy</title>
    <defs>
        <polygon id="path-1" points="0.195665396 0.0158159792 26.9053333 0.0158159792 26.9053333 11.9998667 0.195665396 11.9998667"></polygon>
        <polygon id="path-3" points="0 0 26.7136563 0 26.7136563 12.0172667 0 12.0172667"></polygon>
    </defs>
    <g id="Symbols" stroke="none" stroke-width="1" fill="none" fill-rule="evenodd">
        <g id="Group-9" transform="translate(2.000000, 3.333333)">
            <g id="Group-3" transform="translate(1.333333, 13.333333)">
                <mask id="mask-2" fill="white">
                    <use xlink:href="#path-1"></use>
                </mask>
                <g id="Clip-2"></g>
                <path d="M26.6674,1.4492 L25.1354,0.163866667 C25.1147333,0.146533333 25.0894,0.1412 25.0674,0.1272 C25.0260667,0.100533333 24.9867333,0.0752 24.9414,0.0585333333 C24.9027333,0.0438666667 24.8640667,0.0365333333 24.8227333,0.0285333333 C24.7807333,0.0212 24.7400667,0.0152 24.6967333,0.0158159792 C24.6494,0.0165333333 24.6054,0.0252 24.5594,0.0358666667 C24.5327333,0.0425333333 24.5060667,0.0385333333 24.4794,0.0478666667 L22.5994,0.731866667 C22.2540667,0.8572 22.0747333,1.24053333 22.2014,1.58586667 C22.2994,1.85653333 22.5554,2.02453333 22.8274,2.02453333 C22.9034,2.02453333 22.9800667,2.01186667 23.0554,1.98453333 L23.8754,1.68586667 C22.7840667,6.87453333 18.1907333,10.6665333 12.7854,10.6665333 C7.01406667,10.6665333 2.17273333,6.3492 1.52406667,0.623866667 C1.48273333,0.257866667 1.1554,-0.0108 0.7874,0.0365333333 C0.4214,0.0772 0.158066667,0.407866667 0.200066667,0.7732 C0.924733333,7.17386667 6.3354,11.9998667 12.7854,11.9998667 C18.8334,11.9998667 23.9707333,7.7512 25.1820667,1.94253333 L25.8107333,2.46986667 C25.9354,2.57453333 26.0874,2.62653333 26.2380667,2.62653333 C26.4294,2.62653333 26.6180667,2.54586667 26.7494,2.38786667 C26.9867333,2.10586667 26.9494,1.6852 26.6674,1.4492" id="Fill-1" fill="#B82B22" mask="url(#mask-2)"></path>
            </g>
            <g id="Group-6">
                <mask id="mask-4" fill="white">
                    <use xlink:href="#path-3"></use>
                </mask>
                <g id="Clip-5"></g>
                <path d="M1.79433333,11.8366 C1.83566667,11.8686 1.88166667,11.8926 1.92966667,11.9146 C1.949,11.9232667 1.967,11.9352667 1.987,11.9426 C2.055,11.9652667 2.12566667,11.9792667 2.19833333,11.9792667 C2.27433333,11.9792667 2.35166667,11.9659333 2.42633333,11.9386 L4.30633333,11.2539333 C4.65233333,11.1286 4.831,10.7459333 4.70433333,10.3999333 C4.579,10.0546 4.19566667,9.8746 3.85033333,10.0019333 L3.03233333,10.2992667 C4.12833333,5.11926667 8.72033333,1.33326667 14.1183333,1.33326667 C18.9043333,1.33326667 23.197,4.36193333 24.8003333,8.8686 C25.0123333,9.4666 25.175,10.0872667 25.2836667,10.7139333 C25.3256667,10.9479333 25.3583333,11.1839333 25.3843333,11.4226 C25.421,11.7646 25.7103333,12.0172667 26.0463333,12.0172667 C26.0696667,12.0172667 26.0943333,12.0166 26.1183333,12.0139333 C26.4843333,11.9746 26.7496667,11.6452667 26.7096667,11.2792667 C26.681,11.0112667 26.643,10.7459333 26.5976667,10.4846 C26.4763333,9.78526667 26.2943333,9.09126667 26.057,8.42193333 C24.265,3.3846 19.4676667,-6.66666667e-05 14.1183333,-6.66666667e-05 C8.07766667,-6.66666667e-05 2.94166667,4.24326667 1.725,10.0439333 L1.095,9.51593333 C0.812333333,9.2786 0.391666667,9.31726667 0.156333333,9.59793333 C-0.081,9.87993333 -0.0443333333,10.2999333 0.238333333,10.5372667 L1.77033333,11.8226 C1.77766667,11.8292667 1.78633333,11.8312667 1.79433333,11.8366" id="Fill-4" fill="#B82B22" mask="url(#mask-4)"></path>
            </g>
            <path d="M16.8744667,15.2161333 C16.8744667,15.7754667 16.6738,16.2248 16.2778,16.5508 C15.9238,16.8414667 15.4164667,17.0308 14.7891333,17.1068 L14.7891333,13.4501333 C15.9024667,13.8701333 16.8738,14.5361333 16.8744667,15.2161333 M12.2278,10.2281333 C12.2278,9.42813333 12.8631333,8.92346667 13.9884667,8.79813333 L13.9884667,11.8001333 C13.0084667,11.4721333 12.2278,10.7948 12.2278,10.2281333 M17.3411333,9.0228 C17.6891333,9.1388 18.0644667,8.95346667 18.1838,8.6068 C18.3031333,8.2588 18.1171333,7.88013333 17.7691333,7.76013333 C17.6818,7.73013333 16.9518,7.49813333 15.3218,7.44413333 L15.3218,5.80946667 C15.3218,5.44146667 15.0238,5.1428 14.6551333,5.1428 C14.2864667,5.1428 13.9884667,5.44146667 13.9884667,5.80946667 L13.9884667,7.45813333 C11.7218,7.65213333 10.8944667,8.98013333 10.8944667,10.2281333 C10.8944667,11.5068 12.1138,12.5448 13.4558,13.0274667 L13.4558,17.1148 C11.8938,16.9781333 11.0978,16.3994667 11.0938,16.3968 C10.8031333,16.1708 10.3838,16.2241333 10.1584667,16.5134667 C9.9318,16.8048 9.98446667,17.2234667 10.2751333,17.4494667 C10.3238,17.4874667 11.4024667,18.2921333 13.4558,18.4461333 L13.4558,19.5241333 C13.4558,19.8928 13.7538,20.1908 14.1224667,20.1908 C14.4911333,20.1908 14.7891333,19.8928 14.7891333,19.5241333 L14.7891333,18.4368 C15.7458,18.3454667 16.5358,18.0661333 17.1258,17.5801333 C17.8238,17.0054667 18.2084667,16.1654667 18.2078,15.2154667 C18.2064667,13.8114667 16.8138,12.7948 15.3218,12.2194667 L15.3218,8.77946667 C16.7211333,8.83013333 17.3204667,9.01613333 17.3411333,9.0228" id="Fill-7" fill="#B82B22"></path>
        </g>
    </g>
</svg>