<?xml version="1.0" encoding="UTF-8"?>
<svg width="32px" height="32px" viewBox="0 0 32 32" version="1.1" xmlns="http://www.w3.org/2000/svg" xmlns:xlink="http://www.w3.org/1999/xlink">
    <title>footer_i_finance_default</title>
    <g id="Symbols" stroke="none" stroke-width="1" fill="none" fill-rule="evenodd">
        <g id="footer_i_finance_default" fill="#666666">
            <path d="M22,26 L22,6.66666667 C22,6.29866667 22.2986667,6 22.6666667,6 L24,6 C24.368,6 24.6666667,6.29866667 24.6666667,6.66666667 L24.6666667,26 L22,26 Z M14.6666667,26 L14.6666667,14.6666667 C14.6666667,14.2986667 14.9653333,14 15.3333333,14 L16.6666667,14 C17.0346667,14 17.3333333,14.2986667 17.3333333,14.6666667 L17.3333333,26 L14.6666667,26 Z M7.33333333,26 L7.33333333,12 C7.33333333,11.632 7.632,11.3333333 8,11.3333333 L9.33333333,11.3333333 C9.70133333,11.3333333 10,11.632 10,12 L10,26 L7.33333333,26 Z M28,26 L26,26 L26,6.66666667 C26,5.564 25.1026667,4.66666667 24,4.66666667 L22.6666667,4.66666667 C21.564,4.66666667 20.6666667,5.564 20.6666667,6.66666667 L20.6666667,26 L18.6666667,26 L18.6666667,14.6666667 C18.6666667,13.564 17.7693333,12.6666667 16.6666667,12.6666667 L15.3333333,12.6666667 C14.2306667,12.6666667 13.3333333,13.564 13.3333333,14.6666667 L13.3333333,26 L11.3333333,26 L11.3333333,12 C11.3333333,10.8973333 10.436,10 9.33333333,10 L8,10 C6.89733333,10 6,10.8973333 6,12 L6,26 L4,26 C3.63133333,26 3.33333333,26.298 3.33333333,26.6666667 C3.33333333,27.0353333 3.63133333,27.3333333 4,27.3333333 L6.66666667,27.3333333 L10.6666667,27.3333333 L14,27.3333333 L18,27.3333333 L21.3333333,27.3333333 L25.3333333,27.3333333 L28,27.3333333 C28.3686667,27.3333333 28.6666667,27.0353333 28.6666667,26.6666667 C28.6666667,26.298 28.3686667,26 28,26 L28,26 Z" id="Fill-1"></path>
        </g>
    </g>
</svg>