<?xml version="1.0" encoding="UTF-8"?>
<svg width="32px" height="32px" viewBox="0 0 32 32" version="1.1" xmlns="http://www.w3.org/2000/svg" xmlns:xlink="http://www.w3.org/1999/xlink">
    <title>Icons/account_overview</title>
    <g id="Symbols" stroke="none" stroke-width="1" fill="none" fill-rule="evenodd">
        <g id="Group-5" fill="#666666" transform="translate(1.333333, 5.333333)">
            <path d="M26,20 L3.33333333,20 C2.23066667,20 1.33333333,19.1026667 1.33333333,18 L1.33333333,9.33333333 L28,9.33333333 L28,18 C28,19.1026667 27.1026667,20 26,20 L26,20 Z M1.33333333,8 L28,8 L28,5.33333333 L1.33333333,5.33333333 L1.33333333,8 Z M3.33333333,1.33333333 L26,1.33333333 C27.1026667,1.33333333 28,2.23066667 28,3.33333333 L28,4 L1.33333333,4 L1.33333333,3.33333333 C1.33333333,2.23066667 2.23066667,1.33333333 3.33333333,1.33333333 L3.33333333,1.33333333 Z M26,0 L3.33333333,0 C1.49533333,0 0,1.49533333 0,3.33333333 L0,18 C0,19.838 1.49533333,21.3333333 3.33333333,21.3333333 L26,21.3333333 C27.838,21.3333333 29.3333333,19.838 29.3333333,18 L29.3333333,3.33333333 C29.3333333,1.49533333 27.838,0 26,0 L26,0 Z" id="Fill-1"></path>
            <path d="M12.6666667,16 L4.66666667,16 C4.298,16 4,16.298 4,16.6666667 C4,17.0353333 4.298,17.3333333 4.66666667,17.3333333 L12.6666667,17.3333333 C13.0353333,17.3333333 13.3333333,17.0353333 13.3333333,16.6666667 C13.3333333,16.298 13.0353333,16 12.6666667,16" id="Fill-3"></path>
        </g>
    </g>
</svg>