<?xml version="1.0" encoding="UTF-8"?>
<svg width="32px" height="32px" viewBox="0 0 32 32" version="1.1" xmlns="http://www.w3.org/2000/svg" xmlns:xlink="http://www.w3.org/1999/xlink">
    <title>footer_i_menu_default</title>
    <g id="Symbols" stroke="none" stroke-width="1" fill="none" fill-rule="evenodd">
        <g id="footer_i_menu_default" fill="#666666">
            <path d="M6,13.3333333 C4.52733333,13.3333333 3.33333333,14.5273333 3.33333333,16 C3.33333333,17.4726667 4.52733333,18.6666667 6,18.6666667 C7.47266667,18.6666667 8.66666667,17.4726667 8.66666667,16 C8.66666667,14.5273333 7.47266667,13.3333333 6,13.3333333" id="Fill-1"></path>
            <path d="M16,13.3333333 C14.5273333,13.3333333 13.3333333,14.5273333 13.3333333,16 C13.3333333,17.4726667 14.5273333,18.6666667 16,18.6666667 C17.4726667,18.6666667 18.6666667,17.4726667 18.6666667,16 C18.6666667,14.5273333 17.4726667,13.3333333 16,13.3333333" id="Fill-3"></path>
            <path d="M26,13.3333333 C24.5273333,13.3333333 23.3333333,14.5273333 23.3333333,16 C23.3333333,17.4726667 24.5273333,18.6666667 26,18.6666667 C27.4726667,18.6666667 28.6666667,17.4726667 28.6666667,16 C28.6666667,14.5273333 27.4726667,13.3333333 26,13.3333333" id="Fill-5"></path>
        </g>
    </g>
</svg>