<?xml version="1.0" encoding="UTF-8"?>
<svg width="28px" height="28px" viewBox="0 0 28 28" version="1.1" xmlns="http://www.w3.org/2000/svg" xmlns:xlink="http://www.w3.org/1999/xlink">
    <title>footer_i_home_default</title>
    <g id="Symbols" stroke="none" stroke-width="1" fill="none" fill-rule="evenodd">
        <g id="Group" fill="#666666" transform="translate(0.000000, -0.000437)">
            <path d="M-5.18104078e-14,13.577725 C-5.18104078e-14,13.920725 0.0166491994,14.2576 0.0403085881,14.590975 L3.83544978,14.590975 L3.84947016,14.694225 C4.2639476,18.3071 6.66756623,21.32935 9.95972635,22.6926 L9.95972635,15.9551 L7.90749345,15.9551 L7.90749345,18.35085 L7.69105386,18.0656 C6.96287045,17.105725 6.46076565,15.96385 6.26973799,14.727475 L6.24695488,14.590975 L11.1567162,14.590975 L11.1567162,24.506475 L11.0068734,24.467975 C6.82704803,23.40835 3.56993886,20.1061 2.65686172,15.9551 L0.213810771,15.9551 C1.3205444,22.114225 6.67282387,26.846225 13.2071965,27.1586 L13.2071965,12.56535 L6.24695488,12.56535 L6.26973799,12.42885 C6.46076565,11.18985 6.96287045,10.054975 7.69105386,9.090725 L7.90749345,8.803725 L7.90749345,11.20385 L9.95972635,11.20385 L9.95972635,4.46635 C6.66756623,5.828725 4.2639476,8.850975 3.84947016,12.462975 L3.83544978,12.56535 L2.44567977,12.56535 L2.4579476,12.4376 C2.9469083,7.709975 6.41958079,3.8521 11.0068734,2.689225 L11.1567162,2.6516 L11.1567162,11.20385 L13.2071965,11.20385 L13.2071965,0.00035 C5.85350801,0.35035 -5.18104078e-14,6.2951 -5.18104078e-14,13.577725" id="Fill-108"></path>
            <path d="M24.292584,12.51775 L24.2566568,12.565875 L20.9531051,12.565875 L19.8805461,11.132625 L19.8805461,8.803375 L20.097862,9.093 C20.5771837,9.7265 20.959239,10.436125 21.2221211,11.2035 L23.7107383,11.2035 C22.9422463,8.1585 20.7340367,5.667375 17.8300658,4.466875 L17.8300658,11.136125 C17.8300658,11.256 17.865993,11.377625 17.9431051,11.48 L18.7580396,12.565875 L16.6321997,12.565875 L16.6321997,2.652125 L16.7846713,2.68975 C20.9951662,3.75725 24.2715534,7.100625 25.1522084,11.29975 L25.1644763,11.354 L24.292584,12.51775 Z M25.1522084,15.854125 C24.2715534,20.055875 20.9951662,23.401 16.7846713,24.467625 L16.6321997,24.506125 L16.6321997,14.590625 L20.2713642,14.590625 L21.2422754,15.889125 L21.2221211,15.94425 C20.9636204,16.71425 20.5798125,17.42825 20.097862,18.066125 L19.8805461,18.3505 L19.8805461,15.953 L17.8300658,15.953 L17.8300658,22.69225 C20.5719261,21.555625 22.7030236,19.271875 23.5696582,16.452625 C23.6204821,16.2855 23.5933176,16.0965 23.4811546,15.94425 L22.4699348,14.590625 L24.2566568,14.590625 L25.1644763,15.803375 L25.1522084,15.854125 Z M25.903175,13.577375 L27.440159,11.52725 C27.5444355,11.389875 27.581239,11.221875 27.5488169,11.066125 C26.329044,4.984875 21.0687732,0.30975 14.5817194,0 L14.5817194,27.15825 C21.0687732,26.847625 26.329044,22.175125 27.5488169,16.088625 C27.581239,15.93725 27.5444355,15.768375 27.440159,15.633625 L25.903175,13.577375 Z" id="Fill-109"></path>
        </g>
    </g>
</svg>