<?xml version="1.0" encoding="UTF-8"?>
<svg width="48px" height="48px" viewBox="0 0 48 48" version="1.1" xmlns="http://www.w3.org/2000/svg" xmlns:xlink="http://www.w3.org/1999/xlink">
    <title>Icons/camera</title>
    <g id="Icons/camera" stroke="none" stroke-width="1" fill="none" fill-rule="evenodd">
        <g id="Group-7" transform="translate(4.000000, 6.000000)" fill="#B82B22">
            <path d="M26.2813,27.4463 C24.5593,29.1233 22.3213,30.0203 19.8833,29.9993 C17.4793,29.9673 15.2313,29.0033 13.5533,27.2813 C11.8773,25.5593 10.9693,23.2873 11.0013,20.8833 C11.0323,18.4793 11.9973,16.2313 13.7183,14.5533 C15.4123,12.9043 17.6373,12.0003 19.9983,12.0003 C20.0373,12.0003 20.0773,12.0003 20.1173,12.0013 C22.5203,12.0323 24.7683,12.9973 26.4463,14.7183 C28.1233,16.4403 29.0303,18.7133 28.9993,21.1173 C28.9683,23.5203 28.0033,25.7683 26.2813,27.4463 M20.1423,10.0013 C17.2013,9.9663 14.4273,11.0713 12.3233,13.1223 C10.2193,15.1723 9.0393,17.9193 9.0013,20.8573 C8.9633,23.7953 10.0713,26.5723 12.1223,28.6763 C14.1723,30.7813 16.9193,31.9613 19.8573,31.9993 C19.9063,32.0003 19.9543,32.0003 20.0033,32.0003 C22.8863,32.0003 25.6073,30.8943 27.6773,28.8783 C29.7813,26.8283 30.9613,24.0813 30.9993,21.1423 C31.0373,18.2053 29.9283,15.4273 27.8783,13.3233 C25.8283,11.2183 23.0813,10.0393 20.1423,10.0013" id="Fill-1"></path>
            <path d="M23.4893,24.5811 C22.5493,25.4971 21.3123,26.0001 20.0013,26.0001 C19.9793,26.0001 19.9573,25.9991 19.9343,25.9991 C18.5993,25.9821 17.3503,25.4461 16.4193,24.4891 C15.4873,23.5331 14.9833,22.2701 15.0013,20.9351 C15.0173,19.6001 15.5533,18.3511 16.5103,17.4191 C17.4513,16.5031 18.6873,16.0001 19.9993,16.0001 C20.0203,16.0001 20.0433,16.0011 20.0653,16.0011 C21.4003,16.0181 22.6493,16.5541 23.5813,17.5111 C24.5123,18.4671 25.0163,19.7291 24.9993,21.0651 C24.9823,22.4001 24.4463,23.6491 23.4893,24.5811 M20.0913,14.0011 C18.2213,14.0031 16.4543,14.6831 15.1153,15.9861 C13.7753,17.2911 13.0243,19.0401 13.0013,20.9091 C12.9763,22.7781 13.6813,24.5461 14.9863,25.8851 C16.2913,27.2251 18.0403,27.9761 19.9093,27.9991 C19.9403,27.9991 19.9703,28.0001 20.0023,28.0001 C21.8373,28.0001 23.5683,27.2961 24.8853,26.0141 C26.2243,24.7091 26.9753,22.9611 26.9993,21.0911 C27.0233,19.2221 26.3183,17.4541 25.0133,16.1151 C23.7093,14.7751 21.9603,14.0241 20.0913,14.0011" id="Fill-3"></path>
            <path d="M38,31 C38,32.654 36.654,34 35,34 L5,34 C3.346,34 2,32.654 2,31 L2,11 C2,9.346 3.346,8 5,8 L35,8 C36.654,8 38,9.346 38,11 L38,31 Z M14.226,2 L25.774,2 C26.187,2.463 26.932,4.104 27.606,6 L12.395,6 C13.064,4.124 13.816,2.462 14.226,2 L14.226,2 Z M35,6 L29.724,6 C27.74,0.019 26.527,0 26,0 L14,0 C13.473,0 12.26,0.019 10.276,6 L5,6 C2.243,6 0,8.243 0,11 L0,31 C0,33.757 2.243,36 5,36 L35,36 C37.757,36 40,33.757 40,31 L40,11 C40,8.243 37.757,6 35,6 L35,6 Z" id="Fill-5"></path>
        </g>
    </g>
</svg>