<?xml version="1.0" encoding="UTF-8"?>
<svg width="48px" height="48px" viewBox="0 0 48 48" version="1.1" xmlns="http://www.w3.org/2000/svg" xmlns:xlink="http://www.w3.org/1999/xlink">
    <title>Icons/i_close</title>
    <g id="Icons/i_close" stroke="none" stroke-width="1" fill="none" fill-rule="evenodd">
        <path d="M25.41425,24.00025 L41.70725,7.70725 C42.09825,7.31625 42.09825,6.68425 41.70725,6.29325 C41.31625,5.90225 40.68425,5.90225 40.29325,6.29325 L24.00025,22.58625 L7.70725,6.29325 C7.31625,5.90225 6.68425,5.90225 6.29325,6.29325 C5.90225,6.68425 5.90225,7.31625 6.29325,7.70725 L22.58625,24.00025 L6.29325,40.29325 C5.90225,40.68425 5.90225,41.31625 6.29325,41.70725 C6.48825,41.90225 6.74425,42.00025 7.00025,42.00025 C7.25625,42.00025 7.51225,41.90225 7.70725,41.70725 L24.00025,25.41425 L40.29325,41.70725 C40.48825,41.90225 40.74425,42.00025 41.00025,42.00025 C41.25625,42.00025 41.51225,41.90225 41.70725,41.70725 C42.09825,41.31625 42.09825,40.68425 41.70725,40.29325 L25.41425,24.00025 Z" id="Fill-1" fill="#222222"></path>
    </g>
</svg>