<?xml version="1.0" encoding="UTF-8"?>
<svg width="32px" height="32px" viewBox="0 0 32 32" version="1.1" xmlns="http://www.w3.org/2000/svg" xmlns:xlink="http://www.w3.org/1999/xlink">
    <title>Icon/Account/i_account_money</title>
    <defs>
        <linearGradient x1="0%" y1="0%" x2="100%" y2="100%" id="linearGradient-1">
            <stop stop-color="#F9BE00" offset="0%"></stop>
            <stop stop-color="#E95504" offset="48.548353%"></stop>
            <stop stop-color="#E7373C" offset="100%"></stop>
        </linearGradient>
        <filter id="filter-2">
            <feColorMatrix in="SourceGraphic" type="matrix" values="0 0 0 0 1.000000 0 0 0 0 1.000000 0 0 0 0 1.000000 0 0 0 1.000000 0"></feColorMatrix>
        </filter>
    </defs>
    <g id="Icon/Account/i_account_money" stroke="none" stroke-width="1" fill="none" fill-rule="evenodd">
        <circle id="Oval" fill="url(#linearGradient-1)" cx="16" cy="16" r="16"></circle>
        <g id="Icons/money" transform="translate(6.000000, 6.000000)" filter="url(#filter-2)">
            <g id="Group-5" transform="translate(1.250000, 1.250000)" fill="#222222">
                <path d="M10.4724167,10.3434167 C10.4724167,10.6934167 10.347,10.9738333 10.0995,11.1775833 C9.87825,11.35925 9.56116667,11.4775833 9.16908333,11.5250833 L9.16908333,9.23966667 C9.86491667,9.50216667 10.472,9.91841667 10.4724167,10.3434167 M7.56825,7.22591667 C7.56825,6.72591667 7.96533333,6.4105 8.66866667,6.33175 L8.66866667,8.20883333 C8.05616667,8.00383333 7.56825,7.57966667 7.56825,7.22591667 M10.7640833,6.473 C10.9815833,6.54591667 11.2161667,6.42966667 11.29075,6.213 C11.3653333,5.9955 11.2490833,5.75841667 11.0315833,5.68341667 C10.9774167,5.66466667 10.5190833,5.518 9.502,5.48466667 L9.502,4.46425 C9.502,4.23383333 9.31575,4.04758333 9.08533333,4.04758333 C8.85491667,4.04758333 8.66866667,4.23383333 8.66866667,4.46425 L8.66866667,5.49425 C7.252,5.61591667 6.73491667,6.44591667 6.73491667,7.22591667 C6.73491667,8.0255 7.49741667,8.67425 8.33575,8.97591667 L8.33575,11.5300833 C7.3595,11.4446667 6.862,11.083 6.8595,11.0813333 C6.67741667,10.9396667 6.41533333,10.97425 6.27491667,11.15425 C6.13325,11.3363333 6.16616667,11.598 6.34783333,11.73925 C6.37825,11.763 7.05241667,12.2659167 8.33575,12.3621667 L8.33575,13.0359167 C8.33575,13.2663333 8.522,13.4525833 8.75241667,13.4525833 C8.98283333,13.4525833 9.16908333,13.2663333 9.16908333,13.0359167 L9.16908333,12.3563333 C9.767,12.29925 10.26075,12.1246667 10.6295,11.8209167 C11.06575,11.46175 11.3061667,10.93675 11.30575,10.343 C11.3049167,9.46591667 10.4345,8.83008333 9.502,8.47091667 L9.502,6.32258333 C10.3553333,6.35716667 10.7524167,6.46883333 10.7640833,6.473" id="Fill-1"></path>
                <path d="M8.75,16.6666667 C4.38458333,16.6666667 0.833333333,13.1154167 0.833333333,8.75 C0.833333333,4.38458333 4.38458333,0.833333333 8.75,0.833333333 C13.1154167,0.833333333 16.6666667,4.38458333 16.6666667,8.75 C16.6666667,13.1154167 13.1154167,16.6666667 8.75,16.6666667 M8.75,0 C3.92541667,0 0,3.92541667 0,8.75 C0,13.5745833 3.92541667,17.5 8.75,17.5 C13.5745833,17.5 17.5,13.5745833 17.5,8.75 C17.5,3.92541667 13.5745833,0 8.75,0" id="Fill-3"></path>
            </g>
        </g>
    </g>
</svg>