<?xml version="1.0" encoding="UTF-8"?>
<svg width="32px" height="32px" viewBox="0 0 32 32" version="1.1" xmlns="http://www.w3.org/2000/svg" xmlns:xlink="http://www.w3.org/1999/xlink">
    <title>Icon/Account/i_account_point</title>
    <defs>
        <linearGradient x1="0%" y1="0%" x2="100%" y2="100%" id="linearGradient-1">
            <stop stop-color="#D15B9C" offset="0%"></stop>
            <stop stop-color="#E7373C" offset="100%"></stop>
        </linearGradient>
        <filter id="filter-2">
            <feColorMatrix in="SourceGraphic" type="matrix" values="0 0 0 0 1.000000 0 0 0 0 1.000000 0 0 0 0 1.000000 0 0 0 1.000000 0"></feColorMatrix>
        </filter>
    </defs>
    <g id="Icon/Account/i_account_point" stroke="none" stroke-width="1" fill="none" fill-rule="evenodd">
        <rect id="bg" fill="url(#linearGradient-1)" x="0" y="0" width="32" height="32" rx="16"></rect>
        <g id="Icons/point" transform="translate(6.000000, 6.000000)" filter="url(#filter-2)">
            <g id="Group-5" transform="translate(1.250000, 1.250000)" fill="#222222">
                <path d="M8.75,16.6666667 C4.38458333,16.6666667 0.833333333,13.1154167 0.833333333,8.75 C0.833333333,4.38458333 4.38458333,0.833333333 8.75,0.833333333 C13.1154167,0.833333333 16.6666667,4.38458333 16.6666667,8.75 C16.6666667,13.1154167 13.1154167,16.6666667 8.75,16.6666667 M8.75,0 C3.92541667,0 0,3.92541667 0,8.75 C0,13.5745833 3.92541667,17.5 8.75,17.5 C13.5745833,17.5 17.5,13.5745833 17.5,8.75 C17.5,3.92541667 13.5745833,0 8.75,0" id="Fill-1"></path>
                <path d="M8.95833333,9.16666667 L7.29166667,9.16666667 L7.29166667,5 L8.125,5 C9.45541667,5 11.0416667,5.36125 11.0416667,7.08333333 C11.0416667,8.52416667 10.3991667,9.16666667 8.95833333,9.16666667 M8.125,4.16666667 L6.875,4.16666667 C6.64458333,4.16666667 6.45833333,4.35291667 6.45833333,4.58333333 L6.45833333,12.9166667 C6.45833333,13.1470833 6.64458333,13.3333333 6.875,13.3333333 C7.10541667,13.3333333 7.29166667,13.1470833 7.29166667,12.9166667 L7.29166667,10 L8.95833333,10 C10.86625,10 11.875,8.99125 11.875,7.08333333 C11.875,5.23 10.5083333,4.16666667 8.125,4.16666667" id="Fill-3"></path>
            </g>
        </g>
    </g>
</svg>