<?xml version="1.0" encoding="UTF-8"?>
<svg width="48px" height="48px" viewBox="0 0 48 48" version="1.1" xmlns="http://www.w3.org/2000/svg" xmlns:xlink="http://www.w3.org/1999/xlink">
    <title>Icons/i_delete</title>
    <g id="Icons/i_delete" stroke="none" stroke-width="1" fill="none" fill-rule="evenodd">
        <g id="Group-7" transform="translate(8.000000, 4.000000)" fill="#222222">
            <path d="M12,19 C11.447,19 11,19.447 11,20 L11,32 C11,32.553 11.447,33 12,33 C12.553,33 13,32.553 13,32 L13,20 C13,19.447 12.553,19 12,19" id="Fill-1"></path>
            <path d="M20,19 C19.447,19 19,19.447 19,20 L19,32 C19,32.553 19.447,33 20,33 C20.553,33 21,32.553 21,32 L21,20 C21,19.447 20.553,19 20,19" id="Fill-3"></path>
            <path d="M28,12 L4,12 C2.897,12 2,11.103 2,10 C2,8.897 2.897,8 4,8 L28,8 C29.103,8 30,8.897 30,10 C30,11.103 29.103,12 28,12 L28,12 Z M24,38 L8,38 C6.346,38 5,36.654 5,35 L5,14 L27,14 L27,35 C27,36.654 25.654,38 24,38 L24,38 Z M11,5 C11,3.346 12.346,2 14,2 L18,2 C19.654,2 21,3.346 21,5 L21,6 L11,6 L11,5 Z M32,10 C32,7.794 30.206,6 28,6 L23,6 L23,5 C23,2.243 20.757,0 18,0 L14,0 C11.243,0 9,2.243 9,5 L9,6 L4,6 C1.794,6 0,7.794 0,10 C0,11.858 1.279,13.411 3,13.858 L3,35 C3,37.757 5.243,40 8,40 L24,40 C26.757,40 29,37.757 29,35 L29,13.858 C30.721,13.411 32,11.858 32,10 L32,10 Z" id="Fill-5"></path>
        </g>
    </g>
</svg>