<?xml version="1.0" encoding="UTF-8"?>
<svg width="160px" height="160px" viewBox="0 0 160 160" version="1.1" xmlns="http://www.w3.org/2000/svg" xmlns:xlink="http://www.w3.org/1999/xlink">
    <title>Results/no search</title>
    <g id="Results/no-search" stroke="none" stroke-width="1" fill="none" fill-rule="evenodd">
        <g id="Group-29" transform="translate(12.000000, 17.000000)">
            <path d="M135.5,18.298 L132,18.298 L132,14.798 C132,14.522 131.776,14.298 131.5,14.298 C131.224,14.298 131,14.522 131,14.798 L131,18.298 L127.5,18.298 C127.224,18.298 127,18.522 127,18.798 C127,19.074 127.224,19.298 127.5,19.298 L131,19.298 L131,22.798 C131,23.074 131.224,23.298 131.5,23.298 C131.776,23.298 132,23.074 132,22.798 L132,19.298 L135.5,19.298 C135.776,19.298 136,19.074 136,18.798 C136,18.522 135.776,18.298 135.5,18.298" id="Fill-1" fill="#C8C8C8"></path>
            <path d="M21.5,121.298 L19,121.298 L19,118.798 C19,118.522 18.776,118.298 18.5,118.298 C18.224,118.298 18,118.522 18,118.798 L18,121.298 L15.5,121.298 C15.224,121.298 15,121.522 15,121.798 C15,122.074 15.224,122.298 15.5,122.298 L18,122.298 L18,124.798 C18,125.074 18.224,125.298 18.5,125.298 C18.776,125.298 19,125.074 19,124.798 L19,122.298 L21.5,122.298 C21.776,122.298 22,122.074 22,121.798 C22,121.522 21.776,121.298 21.5,121.298" id="Fill-3" fill="#C8C8C8"></path>
            <path d="M56.916,17.298 L48.947,17.298 C48.395,17.298 47.947,16.851 47.947,16.298 C47.947,15.745 48.395,15.298 48.947,15.298 L56.916,15.298 C57.469,15.298 57.916,15.745 57.916,16.298 C57.916,16.851 57.469,17.298 56.916,17.298 M72.852,17.298 L64.884,17.298 C64.331,17.298 63.884,16.851 63.884,16.298 C63.884,15.745 64.331,15.298 64.884,15.298 L72.852,15.298 C73.404,15.298 73.852,15.745 73.852,16.298 C73.852,16.851 73.404,17.298 72.852,17.298 M88.787,17.298 L80.819,17.298 C80.267,17.298 79.819,16.851 79.819,16.298 C79.819,15.745 80.267,15.298 80.819,15.298 L88.787,15.298 C89.34,15.298 89.787,15.745 89.787,16.298 C89.787,16.851 89.34,17.298 88.787,17.298 M33.842,20.332 C33.59,20.332 33.339,20.237 33.145,20.049 C32.748,19.663 32.74,19.03 33.125,18.635 C35.215,16.489 38.003,15.304 40.978,15.298 L40.979,15.298 C41.531,15.298 41.978,15.744 41.9790017,16.296 C41.98,16.848 41.534,17.297 40.981,17.298 C38.55,17.303 36.269,18.274 34.559,20.029 C34.362,20.231 34.103,20.332 33.842,20.332 M100.803,25.33 C100.336,25.33 99.919,25.002 99.823,24.527 C99.351,22.181 97.917,20.075 95.89,18.754 C95.428,18.452 95.297,17.832 95.599,17.369 C95.902,16.908 96.52,16.779 96.983,17.078 C99.455,18.692 101.205,21.263 101.784,24.133 C101.894,24.674 101.543,25.201 101.001,25.311 C100.935,25.324 100.868,25.33 100.803,25.33 M31,35.518 C30.447,35.518 30,35.07 30,34.518 L30,26.55 C30,25.997 30.447,25.55 31,25.55 C31.553,25.55 32,25.997 32,26.55 L32,34.518 C32,35.07 31.553,35.518 31,35.518 M101,41.252 C100.447,41.252 100,40.805 100,40.252 L100,32.284 C100,31.732 100.447,31.284 101,31.284 C101.553,31.284 102,31.732 102,32.284 L102,40.252 C102,40.805 101.553,41.252 101,41.252 M31,51.453 C30.447,51.453 30,51.006 30,50.453 L30,42.485 C30,41.933 30.447,41.485 31,41.485 C31.553,41.485 32,41.933 32,42.485 L32,50.453 C32,51.006 31.553,51.453 31,51.453 M101,57.188 C100.447,57.188 100,56.74 100,56.188 L100,48.22 C100,47.667 100.447,47.22 101,47.22 C101.553,47.22 102,47.667 102,48.22 L102,56.188 C102,56.74 101.553,57.188 101,57.188 M31,67.389 C30.447,67.389 30,66.942 30,66.389 L30,58.421 C30,57.868 30.447,57.421 31,57.421 C31.553,57.421 32,57.868 32,58.421 L32,66.389 C32,66.942 31.553,67.389 31,67.389 M101,73.123 C100.447,73.123 100,72.676 100,72.123 L100,64.155 C100,63.603 100.447,63.155 101,63.155 C101.553,63.155 102,63.603 102,64.155 L102,72.123 C102,72.676 101.553,73.123 101,73.123 M31,83.324 C30.447,83.324 30,82.877 30,82.324 L30,74.357 C30,73.804 30.447,73.357 31,73.357 C31.553,73.357 32,73.804 32,74.357 L32,82.324 C32,82.877 31.553,83.324 31,83.324 M101,89.059 C100.447,89.059 100,88.611 100,88.059 L100,80.091 C100,79.538 100.447,79.091 101,79.091 C101.553,79.091 102,79.538 102,80.091 L102,88.059 C102,88.611 101.553,89.059 101,89.059 M31.19,99.246 C30.724,99.246 30.306,98.917 30.211,98.443 C30.07,97.736 29.999,97.015 29.9999896,96.297 L29.9999896,90.292 C29.9999896,89.739 30.447,89.292 31,89.292 C31.553,89.292 32,89.739 32,90.292 L32,96.298 C31.999,96.885 32.057,97.475 32.172,98.05 C32.28,98.592 31.929,99.118 31.388,99.227 C31.321,99.24 31.255,99.246 31.19,99.246 M98.172,104.25 C97.921,104.25 97.67,104.156 97.476,103.968 C97.079,103.584 97.069,102.95 97.454,102.554 C99.096,100.86 100,98.638 100,96.298 L100,96.027 C100,95.474 100.447,95.027 101,95.027 C101.553,95.027 102,95.474 102,96.027 L102,96.298 C102,99.16 100.895,101.877 98.89,103.946 C98.694,104.149 98.433,104.25 98.172,104.25 M43.193,107.298 L41,107.298 C38.863,107.298 36.787,106.678 34.997,105.504 C34.535,105.202 34.406,104.582 34.709,104.12 C35.011,103.658 35.632,103.528 36.093,103.832 C37.557,104.791 39.254,105.298 41,105.298 L43.193,105.298 C43.746,105.298 44.193,105.745 44.193,106.298 C44.193,106.851 43.746,107.298 43.193,107.298 M59.129,107.298 L51.161,107.298 C50.608,107.298 50.161,106.851 50.161,106.298 C50.161,105.745 50.608,105.298 51.161,105.298 L59.129,105.298 C59.682,105.298 60.129,105.745 60.129,106.298 C60.129,106.851 59.682,107.298 59.129,107.298 M75.064,107.298 L67.097,107.298 C66.544,107.298 66.097,106.851 66.097,106.298 C66.097,105.745 66.544,105.298 67.097,105.298 L75.064,105.298 C75.617,105.298 76.064,105.745 76.064,106.298 C76.064,106.851 75.617,107.298 75.064,107.298 M91.04,107.298 L83.032,107.298 C82.479,107.298 82.032,106.851 82.032,106.298 C82.032,105.745 82.479,105.298 83.032,105.298 L91,105.298 C91.553,105.298 92.02,105.745 92.02,106.298 C92.02,106.851 91.593,107.298 91.04,107.298" id="Fill-5" fill="#999999"></path>
            <path d="M57,51.798 C57,53.455 55.657,54.798 54,54.798 C52.343,54.798 51,53.455 51,51.798 C51,50.141 52.343,48.798 54,48.798 C55.657,48.798 57,50.141 57,51.798" id="Fill-7" fill="#999999"></path>
            <path d="M81,51.798 C81,53.455 79.657,54.798 78,54.798 C76.343,54.798 75,53.455 75,51.798 C75,50.141 76.343,48.798 78,48.798 C79.657,48.798 81,50.141 81,51.798" id="Fill-9" fill="#999999"></path>
            <path d="M75.9961,71.798 C74.3941,71.798 73.5491,71.122 72.8701,70.579 C72.3031,70.126 71.8921,69.798 70.9921,69.798 C70.0931,69.798 69.7051,70.109 69.1171,70.579 C68.4371,71.122 67.5931,71.798 65.9921,71.798 C64.3921,71.798 63.5481,71.122 62.8691,70.578 C62.2821,70.109 61.8941,69.798 60.9961,69.798 C60.0981,69.798 59.7091,70.109 59.1221,70.578 C58.4431,71.122 57.5981,71.798 55.9971,71.798 C54.3971,71.798 53.5531,71.122 52.8741,70.579 C52.2871,70.109 51.8981,69.798 51.0001,69.798 C50.4471,69.798 50.0001,69.351 50.0001,68.798 C50.0001,68.245 50.4471,67.798 51.0001,67.798 C52.6001,67.798 53.4451,68.474 54.1241,69.018 C54.7111,69.487 55.0991,69.798 55.9971,69.798 C56.8961,69.798 57.2841,69.487 57.8721,69.017 C58.5511,68.474 59.3951,67.798 60.9961,67.798 C62.5961,67.798 63.4401,68.474 64.1191,69.018 C64.7061,69.487 65.0941,69.798 65.9921,69.798 C66.8921,69.798 67.2791,69.487 67.8671,69.017 C68.5471,68.474 69.3921,67.798 70.9921,67.798 C72.5941,67.798 73.4391,68.474 74.1181,69.017 C74.6851,69.47 75.0961,69.798 75.9961,69.798 C76.8961,69.798 77.3071,69.47 77.8741,69.017 C78.5531,68.474 79.3981,67.798 81.0001,67.798 C81.5531,67.798 82.0001,68.245 82.0001,68.798 C82.0001,69.351 81.5531,69.798 81.0001,69.798 C80.1001,69.798 79.6891,70.126 79.1221,70.579 C78.4431,71.122 77.5981,71.798 75.9961,71.798" id="Fill-11" fill="#999999"></path>
            <path d="M118.9023,100.0001 C118.9023,110.6041 110.3053,119.1981 99.7023,119.1981 C89.0963,119.1981 80.5003,110.6041 80.5003,100.0001 C80.5003,89.3951 89.0963,80.7981 99.7023,80.7981 C110.3053,80.7981 118.9023,89.3951 118.9023,100.0001" id="Fill-13" fill="#F2F2F2" opacity="0.5"></path>
            <path d="M82.5,100.0001 C82.5,90.5151 90.217,82.7981 99.702,82.7981 C109.187,82.7981 116.902,90.5151 116.902,100.0001 C116.902,104.7241 114.986,109.0081 111.893,112.1191 C111.88,112.1311 111.865,112.1391 111.854,112.1501 C111.842,112.1621 111.834,112.1771 111.822,112.1881 C108.711,115.2821 104.427,117.1981 99.702,117.1981 C90.217,117.1981 82.5,109.4831 82.5,100.0001 M123.915,121.3841 L116.032,113.5011 C119.072,109.8311 120.902,105.1261 120.902,100.0001 C120.902,88.3101 111.392,78.7981 99.702,78.7981 C88.012,78.7981 78.5,88.3101 78.5,100.0001 C78.5,111.6881 88.012,121.1981 99.702,121.1981 C104.828,121.1981 109.534,119.3681 113.204,116.3291 L121.087,124.2121 C121.478,124.6031 121.989,124.7981 122.501,124.7981 C123.013,124.7981 123.524,124.6031 123.915,124.2121 C124.696,123.4311 124.696,122.1651 123.915,121.3841" id="Fill-15" fill="#666666"></path>
            <path d="M25.2432,8.9298 C24.8972,8.9298 24.5612,8.7508 24.3762,8.4298 L20.3762,1.5008 C20.0992,1.0228 20.2642,0.4108 20.7422,0.1348 C21.2192,-0.1422 21.8312,0.0228 22.1082,0.5008 L26.1082,7.4298 C26.3852,7.9088 26.2212,8.5198 25.7422,8.7958 C25.5852,8.8868 25.4132,8.9298 25.2432,8.9298" id="Fill-17" fill="#666666"></path>
            <path d="M31.5742,9.8937 C31.4882,9.8937 31.4012,9.8827 31.3142,9.8597 C30.7812,9.7167 30.4652,9.1677 30.6072,8.6347 L32.6782,0.9077 C32.8202,0.3737 33.3692,0.0587 33.9022,0.2007 C34.4352,0.3427 34.7522,0.8917 34.6092,1.4247 L32.5392,9.1527 C32.4202,9.5987 32.0152,9.8937 31.5742,9.8937" id="Fill-19" fill="#666666"></path>
            <path d="M22.9131,14.8937 C22.8271,14.8937 22.7401,14.8827 22.6531,14.8597 L14.9271,12.7897 C14.3931,12.6467 14.0771,12.0977 14.2201,11.5647 C14.3621,11.0307 14.9121,10.7157 15.4441,10.8577 L23.1711,12.9277 C23.7041,13.0707 24.0201,13.6197 23.8781,14.1527 C23.7591,14.5997 23.3541,14.8937 22.9131,14.8937" id="Fill-21" fill="#666666"></path>
            <path d="M115.9082,4.5089 C115.7562,4.5089 115.6052,4.4399 115.5082,4.3079 C115.1932,3.8869 114.7462,3.5689 114.2502,3.4129 C113.9862,3.3299 113.8402,3.0499 113.9232,2.7859 C114.0052,2.5229 114.2862,2.3759 114.5492,2.4589 C115.2552,2.6799 115.8632,3.1129 116.3082,3.7099 C116.4732,3.9309 116.4292,4.2439 116.2072,4.4099 C116.1172,4.4769 116.0122,4.5089 115.9082,4.5089 M111.0602,4.5519 C110.9592,4.5519 110.8572,4.5219 110.7692,4.4579 C110.5452,4.2979 110.4932,3.9849 110.6542,3.7609 C111.0812,3.1649 111.6972,2.7099 112.3892,2.4769 C112.6512,2.3899 112.9352,2.5299 113.0222,2.7929 C113.1102,3.0539 112.9702,3.3379 112.7082,3.4259 C112.2132,3.5919 111.7722,3.9169 111.4672,4.3429 C111.3692,4.4799 111.2162,4.5519 111.0602,4.5519 M115.9292,8.0589 C115.8272,8.0589 115.7242,8.0279 115.6362,7.9629 C115.4122,7.8009 115.3632,7.4879 115.5252,7.2649 C115.8362,6.8369 116.0002,6.3289 116.0002,5.7979 C116.0002,5.5219 116.2232,5.2799 116.5002,5.2799 C116.7762,5.2799 117.0002,5.4859 117.0002,5.7619 L117.0002,5.7979 C117.0002,6.5409 116.7692,7.2519 116.3342,7.8529 C116.2362,7.9879 116.0842,8.0589 115.9292,8.0589 M111.0822,8.0729 C110.9292,8.0729 110.7772,8.0029 110.6792,7.8699 C110.2402,7.2729 110.0062,6.5639 110.001187,5.8199 C109.9992,5.5439 110.2212,5.3179 110.4982,5.3169 L110.5012,5.3169 C110.7752,5.3169 110.9992,5.5379 111.0012,5.8139 C111.0042,6.3449 111.1722,6.8519 111.4842,7.2769 C111.6482,7.4989 111.6002,7.8129 111.3792,7.9759 C111.2892,8.0419 111.1852,8.0729 111.0822,8.0729 M113.5022,9.2979 C113.1332,9.2979 112.7732,9.2419 112.4292,9.1309 C112.1672,9.0469 112.0222,8.7649 112.1072,8.5019 C112.1922,8.2389 112.4752,8.0959 112.7362,8.1799 C113.2272,8.3369 113.7822,8.3369 114.2792,8.1739 C114.5462,8.0879 114.8242,8.2329 114.9102,8.4939 C114.9952,8.7569 114.8512,9.0389 114.5902,9.1249 C114.2402,9.2379 113.8742,9.2969 113.5022,9.2979" id="Fill-23" fill="#C8C8C8"></path>
            <path d="M6,96.298 C6,97.955 4.657,99.298 3,99.298 C1.343,99.298 0,97.955 0,96.298 C0,94.641 1.343,93.298 3,93.298 C4.657,93.298 6,94.641 6,96.298" id="Fill-25" fill="#C8C8C8"></path>
            <path d="M126.5,39.298 C125.121,39.298 124,40.419 124,41.798 C124,43.177 125.121,44.298 126.5,44.298 C127.879,44.298 129,43.177 129,41.798 C129,40.419 127.879,39.298 126.5,39.298 M126.5,45.298 C124.57,45.298 123,43.728 123,41.798 C123,39.868 124.57,38.298 126.5,38.298 C128.43,38.298 130,39.868 130,41.798 C130,43.728 128.43,45.298 126.5,45.298" id="Fill-27" fill="#C8C8C8"></path>
        </g>
    </g>
</svg>