<?xml version="1.0" encoding="UTF-8"?>
<svg width="48px" height="48px" viewBox="0 0 48 48" version="1.1" xmlns="http://www.w3.org/2000/svg" xmlns:xlink="http://www.w3.org/1999/xlink">
    <title>Flag/myr</title>
    <defs>
        <circle id="path-1" cx="24" cy="24" r="24"></circle>
    </defs>
    <g id="Flag/myr" stroke="none" stroke-width="1" fill="none" fill-rule="evenodd">
        <mask id="mask-2" fill="white">
            <use xlink:href="#path-1"></use>
        </mask>
        <use id="Oval" fill="#186CA3" xlink:href="#path-1"></use>
        <g id="Group-21" mask="url(#mask-2)">
            <g transform="translate(-25.000000, -1.000000)">
                <polygon id="Fill-1" fill="#C51718" points="0 3.572 85.712 3.572 85.712 -7.10542736e-15 0 -7.10542736e-15"></polygon>
                <polygon id="Fill-2" fill="#FFFFFF" points="0 7.142 85.712 7.142 85.712 3.572 0 3.572"></polygon>
                <polygon id="Fill-3" fill="#C51718" points="0 10.715 85.712 10.715 85.712 7.142 0 7.142"></polygon>
                <polygon id="Fill-4" fill="#FFFFFF" points="0 14.287 85.712 14.287 85.712 10.715 0 10.715"></polygon>
                <polygon id="Fill-5" fill="#C51718" points="0 17.857 85.712 17.857 85.712 14.287 0 14.287"></polygon>
                <polygon id="Fill-6" fill="#FFFFFF" points="0 21.43 85.712 21.43 85.712 17.858 0 17.858"></polygon>
                <polygon id="Fill-7" fill="#C51718" points="0 25 85.712 25 85.712 21.43 0 21.43"></polygon>
                <polygon id="Fill-8" fill="#FFFFFF" points="0 28.572 85.712 28.572 85.712 25 0 25"></polygon>
                <polygon id="Fill-9" fill="#C51718" points="0 32.142 85.712 32.142 85.712 28.572 0 28.572"></polygon>
                <polygon id="Fill-10" fill="#FFFFFF" points="0 35.714 85.712 35.714 85.712 32.142 0 32.142"></polygon>
                <polygon id="Fill-11" fill="#C51718" points="0 39.287 85.712 39.287 85.712 35.714 0 35.714"></polygon>
                <polygon id="Fill-12" fill="#FFFFFF" points="0 42.858 85.712 42.858 85.712 39.288 0 39.288"></polygon>
                <polygon id="Fill-13" fill="#C51718" points="0 46.43 85.712 46.43 85.712 42.858 0 42.858"></polygon>
                <polygon id="Fill-14" fill="#FFFFFF" points="0 50 85.712 50 85.712 46.43 0 46.43"></polygon>
                <polygon id="Fill-15" fill="#001564" points="1 28.572 50.999 28.572 50.999 5.86197757e-14 1 5.86197757e-14"></polygon>
                <g id="Group-20" stroke-width="1" fill="none" transform="translate(28.000000, 9.000000)">
                    <path d="M3.19447273,8.20858182 C3.19447273,4.44421818 6.24829091,1.3904 10.0133818,1.3904 C11.3195636,1.3904 12.5399273,1.7584 13.5770182,2.39621818 C12.1988364,1.16567273 10.3806545,0.415854545 8.38938182,0.415854545 C4.08829091,0.415854545 0.598109091,3.90749091 0.598109091,8.20858182 C0.598109091,12.5096727 4.08829091,15.9998545 8.38938182,15.9998545 C10.3806545,15.9998545 12.1988364,15.2529455 13.5770182,14.0194909 C12.5399273,14.6573091 11.3195636,15.0267636 10.0133818,15.0267636 C6.24829091,15.0267636 3.19447273,11.9729455 3.19447273,8.20858182" id="Fill-16" fill="#FDCA36"></path>
                    <polygon id="Fill-18" fill="#FDCA36" points="18.7797091 8.20858182 22.5113455 6.76276364 18.5222545 7.08203636 21.2582545 4.16058182 17.8000727 6.17730909 18.9986182 2.35767273 16.7600727 5.67621818 16.1818909 1.71403636 15.7666182 4.55258182 15.6488 5.37076364 15.6037091 5.67621818 13.3637091 2.35767273 14.5622545 6.17730909 11.1048 4.16058182 13.8408 7.08203636 9.85098182 6.76276364 13.5848 8.20858182 9.85098182 9.65294545 13.8408 9.33658182 11.1048 12.2565818 14.5622545 10.2398545 13.3637091 14.0594909 15.6037091 10.7409455 15.6488 11.0449455 15.7666182 11.8631273 16.1818909 14.7016727 16.7600727 10.7409455 18.9986182 14.0594909 17.8000727 10.2398545 21.2582545 12.2565818 18.5222545 9.33658182 22.5113455 9.65294545"></polygon>
                </g>
            </g>
        </g>
    </g>
</svg>