<?xml version="1.0" encoding="UTF-8"?>
<svg width="48px" height="48px" viewBox="0 0 48 48" version="1.1" xmlns="http://www.w3.org/2000/svg" xmlns:xlink="http://www.w3.org/1999/xlink" style="background: #FFFFFF;">
    <title>Flag/kr</title>
    <defs>
        <circle id="path-1" cx="24" cy="24" r="24"></circle>
        <circle id="path-3" cx="24" cy="24" r="24"></circle>
    </defs>
    <g id="Flag/kr" stroke="none" stroke-width="1" fill="none" fill-rule="evenodd">
        <rect fill="#FFFFFF" opacity="0" x="0" y="0" width="48" height="48"></rect>
        <mask id="mask-2" fill="white">
            <use xlink:href="#path-1"></use>
        </mask>
        <use id="Oval" fill="#FFFFFF" xlink:href="#path-1"></use>
        <g id="Group-25" mask="url(#mask-2)">
            <g transform="translate(-7.000000, 6.000000)">
                <polygon id="Fill-1" fill="#FFFFFF" points="0 36 61.71264 36 61.71264 0 0 0"></polygon>
                <polygon id="Fill-2" fill="#000000" points="40.840848 5.935608 43.129008 9.368568 41.880528 10.200888 39.593088 6.766488"></polygon>
                <polygon id="Fill-3" fill="#000000" points="43.544376 9.992592 45.832536 13.424112 44.584776 14.256432 42.297336 10.823472"></polygon>
                <polygon id="Fill-4" fill="#000000" points="42.71328 4.688208 47.70504 12.176208 46.45656 13.007808 41.46552 5.519088"></polygon>
                <polygon id="Fill-5" fill="#000000" points="44.584992 3.439512 46.873152 6.872472 45.625392 7.703352 43.337952 4.271832"></polygon>
                <polygon id="Fill-6" fill="#000000" points="47.28924 7.496496 49.5774 10.928016 48.32964 11.760336 46.04148 8.327376"></polygon>
                <polygon id="Fill-7" fill="#000000" points="17.127288 21.744648 22.119048 29.232648 20.871288 30.065688 15.879528 22.575528"></polygon>
                <polygon id="Fill-8" fill="#000000" points="15.254856 22.993416 17.543016 26.424936 16.295256 27.257256 14.007816 23.824296"></polygon>
                <polygon id="Fill-9" fill="#000000" points="17.959104 27.049032 20.247264 30.480552 18.999504 31.312872 16.712064 27.881352"></polygon>
                <polygon id="Fill-10" fill="#000000" points="13.383144 24.240744 18.374904 31.728744 17.127144 32.561784 12.135384 25.073064"></polygon>
                <polygon id="Fill-11" fill="#000000" points="15.87924 13.423824 20.87172 5.935824 22.11876 6.768144 17.127 14.256144"></polygon>
                <polygon id="Fill-12" fill="#000000" points="14.007528 12.176496 19.000008 4.688496 20.247048 5.519376 15.254568 13.007376"></polygon>
                <polygon id="Fill-13" fill="#000000" points="12.135096 10.927728 17.127576 3.439728 18.374616 4.272048 13.382856 11.760048"></polygon>
                <polygon id="Fill-14" fill="#000000" points="39.592872 29.232936 41.881032 25.801416 43.128792 26.633016 40.840632 30.065256"></polygon>
                <polygon id="Fill-15" fill="#000000" points="42.297048 25.17732 44.585208 21.74436 45.832248 22.57596 43.544088 26.0082"></polygon>
                <polygon id="Fill-16" fill="#000000" points="41.465232 30.480264 43.753392 27.048744 45.001152 27.881784 42.712992 31.312584"></polygon>
                <polygon id="Fill-17" fill="#000000" points="44.16876 26.424648 46.45692 22.993128 47.70468 23.824728 45.41652 27.256968"></polygon>
                <polygon id="Fill-18" fill="#000000" points="43.337664 31.729032 45.625824 28.297512 46.872864 29.129112 44.584704 32.561352"></polygon>
                <polygon id="Fill-19" fill="#000000" points="46.041192 27.671976 48.330072 24.240456 49.577112 25.073496 47.288952 28.504296"></polygon>
                <g id="Group-24" stroke-width="1" fill="none" transform="translate(21.600000, 8.640000)">
                    <path d="M14.248728,1.871496 C10.113768,-0.884664 4.523688,0.233496 1.768248,4.367736 C0.388728,6.436296 0.947448,9.230616 3.016008,10.608696 C5.083848,11.986776 7.877448,11.428056 9.256968,9.359496 C10.635048,7.292376 13.427928,6.734376 15.496488,8.112456 C17.563608,9.490536 18.123768,12.284856 16.744248,14.353416 C19.501848,10.216296 18.384408,4.629096 14.248728,1.871496" id="Fill-20" fill="#CD2E3A"></path>
                    <path d="M1.768248,4.367592 C0.388728,6.436152 0.947448,9.230472 3.016008,10.608552 C5.083128,11.986632 7.877448,11.428632 9.256968,9.360072 C10.635048,7.292232 13.427928,6.734232 15.496488,8.112312 C17.563608,9.490392 18.123768,12.284712 16.744248,14.353272 C13.988088,18.487512 8.399448,19.605672 4.263768,16.849512 C0.128088,14.091912 -0.989352,8.503272 1.768248,4.367592" id="Fill-22" fill="#0047A0"></path>
                </g>
            </g>
        </g>
        <mask id="mask-4" fill="white">
            <use xlink:href="#path-3"></use>
        </mask>
        <circle stroke="#E3E3E3" cx="24" cy="24" r="23.5"></circle>
    </g>
</svg>