<?xml version="1.0" encoding="UTF-8"?>
<svg width="48px" height="48px" viewBox="0 0 48 48" version="1.1" xmlns="http://www.w3.org/2000/svg" xmlns:xlink="http://www.w3.org/1999/xlink">
    <title>Icons/i_navigation</title>
    <g id="Icons/i_navigation" stroke="none" stroke-width="1" fill="none" fill-rule="evenodd">
        <path d="M25.2531,6.7126 C24.7971,5.4646 25.4731,4.7346 26.7531,5.0896 L26.7531,5.0896 L38.6751,8.4046 C39.9551,8.7606 40.3871,9.9476 39.6351,11.0426 L39.6351,11.0426 L32.6331,21.2456 C31.8811,22.3406 30.8951,22.2156 30.4411,20.9676 L30.4411,20.9676 L28.6099754,15.9392586 C12.0867768,20.8585293 14.0640836,39.0813315 14.1614,39.8986 C14.3594,41.5406 13.1904,43.0356 11.5484,43.2376 C11.4244,43.2526 11.3004,43.2606 11.1794,43.2606 C9.6884,43.2606 8.3974,42.1536 8.2074,40.6356 C7.13022011,32.0163037 9.81354878,15.4534612 26.5548838,10.2881117 Z" id="Combined-Shape" fill="#FFFFFF"></path>
    </g>
</svg>