<?xml version="1.0" encoding="UTF-8"?>
<svg width="48px" height="48px" viewBox="0 0 48 48" version="1.1" xmlns="http://www.w3.org/2000/svg" xmlns:xlink="http://www.w3.org/1999/xlink">
    <title>Icons/Multicolor/i_position</title>
    <g id="Icons/Multicolor/i_position" stroke="none" stroke-width="1" fill="none" fill-rule="evenodd">
        <path d="M24,5 C31.7323077,5 38,11.2676923 38,19 C38,21.7666154 37.1869231,24.3383077 35.802,26.5104615 L35.802,26.5104615 L35.8106154,26.5104615 L24,43.9956055 L12.1893846,26.5104615 C10.8130769,24.3383077 10,21.7666154 10,19 C10,11.2676923 16.2676923,5 24,5 Z M24,14 C20.6862915,14 18,16.6862915 18,20 C18,23.3137085 20.6862915,26 24,26 C27.3137085,26 30,23.3137085 30,20 C30,16.6862915 27.3137085,14 24,14 Z" id="Combined-Shape" fill="#B82B22"></path>
    </g>
</svg>