<?xml version="1.0" encoding="UTF-8"?>
<svg width="48px" height="48px" viewBox="0 0 48 48" version="1.1" xmlns="http://www.w3.org/2000/svg" xmlns:xlink="http://www.w3.org/1999/xlink">
    <title>Icons/refresh</title>
    <g id="Icons/refresh" stroke="none" stroke-width="1" fill="none" fill-rule="evenodd">
        <path d="M26.2254725,6 C17.7774725,6 10.6094725,11.905 8.87547254,19.998 L6.64247254,18.124 C6.21847254,17.769 5.58747254,17.824 5.23447254,18.247 C4.87847254,18.67 4.93447254,19.301 5.35747254,19.655 L8.95047254,22.67 C8.96147254,22.679 8.97447254,22.682 8.98647254,22.69 C9.04847254,22.738 9.11747254,22.774 9.18847254,22.807 C9.21847254,22.82 9.24547254,22.839 9.27647254,22.85 C9.37447254,22.883 9.47847254,22.902 9.58447254,22.903 C9.58647254,22.903 9.58947254,22.904 9.59147254,22.904 L9.59247254,22.904 C9.70547254,22.904 9.82247254,22.885 9.93447254,22.844 L14.3414725,21.24 C14.8614725,21.052 15.1284725,20.478 14.9394725,19.959 C14.7504725,19.439 14.1744725,19.173 13.6584725,19.361 L10.8394725,20.387 C12.3894725,13.225 18.7404725,8 26.2254725,8 C34.9104725,8 41.9754725,15.065 41.9754725,23.75 C41.9754725,32.435 34.9104725,39.5 26.2254725,39.5 C19.2874725,39.5 13.2424725,35.053 11.1834725,28.434 C11.0194725,27.907 10.4624725,27.613 9.93147254,27.775 C9.40447254,27.939 9.10947254,28.5 9.27347254,29.027 C11.5934725,36.487 18.4064725,41.5 26.2254725,41.5 C36.0124725,41.5 43.9754725,33.537 43.9754725,23.75 C43.9754725,13.963 36.0124725,6 26.2254725,6" id="Fill-1" fill="#B82B22"></path>
    </g>
</svg>