<?xml version="1.0" encoding="UTF-8"?>
<svg width="48px" height="48px" viewBox="0 0 48 48" version="1.1" xmlns="http://www.w3.org/2000/svg" xmlns:xlink="http://www.w3.org/1999/xlink">
    <title>Icons/i_search</title>
    <g id="Icons/i_search" stroke="none" stroke-width="1" fill="none" fill-rule="evenodd">
        <path d="M8,23.002 C8,14.73 14.729,8 23.002,8 C31.273,8 38.002,14.73 38.002,23.002 C38.002,27.129 36.325,30.872 33.618,33.587 C33.612,33.592 33.605,33.593 33.6,33.599 C33.594,33.604 33.593,33.611 33.588,33.617 C30.873,36.323 27.13,38 23.002,38 C14.729,38 8,31.272 8,23.002 M42.708,41.293 L35.69,34.275 C38.363,31.272 40.002,27.329 40.002,23.002 C40.002,13.627 32.376,6 23.002,6 C13.627,6 6,13.627 6,23.002 C6,32.375 13.627,40 23.002,40 C27.329,40 31.272,38.361 34.276,35.69 L41.294,42.707 C41.489,42.902 41.745,43 42.001,43 C42.257,43 42.513,42.902 42.708,42.707 C43.099,42.316 43.099,41.684 42.708,41.293" id="Fill-1" fill="#222222"></path>
    </g>
</svg>