<?xml version="1.0" encoding="UTF-8"?>
<svg width="48px" height="48px" viewBox="0 0 48 48" version="1.1" xmlns="http://www.w3.org/2000/svg" xmlns:xlink="http://www.w3.org/1999/xlink">
    <title>Page/status/item</title>
    <defs>
        <circle id="path-1" cx="24" cy="24" r="24"></circle>
        <linearGradient x1="8.59266493%" y1="0%" x2="100%" y2="100%" id="linearGradient-3">
            <stop stop-color="#E7373C" offset="0%"></stop>
            <stop stop-color="#D15B9C" offset="36.0800253%"></stop>
            <stop stop-color="#E95504" offset="69.9403505%"></stop>
            <stop stop-color="#F9BE00" offset="100%"></stop>
        </linearGradient>
        <filter id="filter-4">
            <feColorMatrix in="SourceGraphic" type="matrix" values="0 0 0 0 1.000000 0 0 0 0 1.000000 0 0 0 0 1.000000 0 0 0 1.000000 0"></feColorMatrix>
        </filter>
    </defs>
    <g id="Page/status/item" stroke="none" stroke-width="1" fill="none" fill-rule="evenodd">
        <g id="bg">
            <mask id="mask-2" fill="white">
                <use xlink:href="#path-1"></use>
            </mask>
            <use fill="#B82B22" xlink:href="#path-1"></use>
            <g id="Group" mask="url(#mask-2)" fill="url(#linearGradient-3)">
                <g id="Color/Gradient/Primary">
                    <rect id="bg" x="0" y="0" width="48" height="48"></rect>
                </g>
            </g>
        </g>
        <g filter="url(#filter-4)" id="color">
            <g transform="translate(12.000000, 12.000000)" id="Icons/check-bold" fill="#222222">
                <path d="M21.70705,5.29295 C21.31655,4.90245 20.68355,4.90245 20.29305,5.29295 L9.13755,16.44845 L3.70705,11.01745 C3.31655,10.62695 2.68355,10.62695 2.29305,11.01745 C1.90255,11.40795 1.90255,12.04095 2.29305,12.43145 L8.43055,18.56945 C8.62605,18.76445 8.88205,18.86245 9.13755,18.86245 C9.39355,18.86245 9.64955,18.76445 9.84455,18.56945 L21.70705,6.70695 C22.09755,6.31645 22.09755,5.68345 21.70705,5.29295" id="Fill-1"></path>
            </g>
        </g>
    </g>
</svg>