<?xml version="1.0" encoding="UTF-8"?>
<svg width="48px" height="48px" viewBox="0 0 48 48" version="1.1" xmlns="http://www.w3.org/2000/svg" xmlns:xlink="http://www.w3.org/1999/xlink">
    <title>Icons/i_turn</title>
    <g id="Icons/i_turn" stroke="none" stroke-width="1" fill="none" fill-rule="evenodd">
        <g id="Group-16" transform="translate(5.000000, 5.000000)" fill="#B82B22">
            <path d="M36.9932,33 L28.9932,33 C28.4402,33 27.9932,33.447 27.9932,34 C27.9932,34.553 28.4402,35 28.9932,35 L36.9932,35 C37.5462,35 37.9932,34.553 37.9932,34 C37.9932,33.447 37.5462,33 36.9932,33" id="Fill-1"></path>
            <path d="M36.9932,23 L24.9932,23 C24.4402,23 23.9932,23.447 23.9932,24 C23.9932,24.553 24.4402,25 24.9932,25 L36.9932,25 C37.5462,25 37.9932,24.553 37.9932,24 C37.9932,23.447 37.5462,23 36.9932,23" id="Fill-4"></path>
            <path d="M36.9932,13 L20.9932,13 C20.4412,13 19.9932,13.447 19.9932,14 C19.9932,14.553 20.4412,15 20.9932,15 L36.9932,15 C37.5462,15 37.9932,14.553 37.9932,14 C37.9932,13.447 37.5462,13 36.9932,13" id="Fill-7"></path>
            <path d="M16.9932,5 L36.9932,5 C37.5462,5 37.9932,4.553 37.9932,4 C37.9932,3.447 37.5462,3 36.9932,3 L16.9932,3 C16.4412,3 15.9932,3.447 15.9932,4 C15.9932,4.553 16.4412,5 16.9932,5" id="Fill-10"></path>
            <path d="M16.2793,28.2998 L9.9933,34.5858 L9.9933,0.9998 C9.9933,0.4468 9.5453,-0.0002 8.9933,-0.0002 C8.4413,-0.0002 7.9933,0.4468 7.9933,0.9998 L7.9933,34.5858 L1.7073,28.2998 C1.3163,27.9088 0.6833,27.9088 0.2933,28.2998 C-0.0977,28.6908 -0.0977,29.3228 0.2933,29.7138 L8.2853,37.7058 C8.3783,37.7988 8.4883,37.8718 8.6113,37.9228 C8.7333,37.9738 8.8623,37.9998 8.9933,37.9998 C9.1233,37.9998 9.2533,37.9738 9.3753,37.9228 C9.4983,37.8718 9.6083,37.7988 9.7003,37.7058 L17.6933,29.7138 C18.0843,29.3228 18.0843,28.6908 17.6933,28.2998 C17.3023,27.9088 16.6703,27.9088 16.2793,28.2998" id="Fill-13"></path>
        </g>
    </g>
</svg>