<?xml version="1.0" encoding="UTF-8"?>
<svg width="48px" height="48px" viewBox="0 0 48 48" version="1.1" xmlns="http://www.w3.org/2000/svg" xmlns:xlink="http://www.w3.org/1999/xlink" >
    <title>Icons/i_turn_reverse</title>
    <g id="Icons/i_turn_reverse" stroke="none" stroke-width="1" fill="none" fill-rule="evenodd">
        <g id="Group-12" transform="translate(5.000000, 5.000000)" fill="#B82B22">
            <path d="M16.2793,9.6989 C16.4743,9.8939 16.7303,9.9919 16.9863,9.9919 C17.2423,9.9919 17.4983,9.8939 17.6933,9.6989 C18.0843,9.3079 18.0843,8.6759 17.6933,8.2849 L9.7013,0.2929 C9.6093,0.1999 9.4983,0.1269 9.3753,0.0759 C9.1313,-0.0261 8.8553,-0.0261 8.6113,0.0759 C8.4883,0.1269 8.3773,0.1999 8.2853,0.2929 L0.2933,8.2849 C-0.0977,8.6759 -0.0977,9.3079 0.2933,9.6989 C0.4883,9.8939 0.7443,9.9919 1.0003,9.9919 C1.2563,9.9919 1.5113,9.8939 1.7073,9.6989 L7.9933,3.4129 L7.9933,36.9989 C7.9933,37.5519 8.4403,37.9989 8.9933,37.9989 C9.5463,37.9989 9.9933,37.5519 9.9933,36.9989 L9.9933,3.4129 L16.2793,9.6989 Z" id="Fill-1"></path>
            <path d="M29,4.9987 L37,4.9987 C37.553,4.9987 38,4.5517 38,3.9987 C38,3.4457 37.553,2.9987 37,2.9987 L29,2.9987 C28.447,2.9987 28,3.4457 28,3.9987 C28,4.5517 28.447,4.9987 29,4.9987" id="Fill-4"></path>
            <path d="M37,12.9987 L25,12.9987 C24.447,12.9987 24,13.4457 24,13.9987 C24,14.5517 24.447,14.9987 25,14.9987 L37,14.9987 C37.553,14.9987 38,14.5517 38,13.9987 C38,13.4457 37.553,12.9987 37,12.9987" id="Fill-6"></path>
            <path d="M37,22.9987 L21,22.9987 C20.447,22.9987 20,23.4457 20,23.9987 C20,24.5517 20.447,24.9987 21,24.9987 L37,24.9987 C37.553,24.9987 38,24.5517 38,23.9987 C38,23.4457 37.553,22.9987 37,22.9987" id="Fill-8"></path>
            <path d="M37,32.9987 L17,32.9987 C16.447,32.9987 16,33.4457 16,33.9987 C16,34.5517 16.447,34.9987 17,34.9987 L37,34.9987 C37.553,34.9987 38,34.5517 38,33.9987 C38,33.4457 37.553,32.9987 37,32.9987" id="Fill-10"></path>
        </g>
    </g>
</svg>